<svg width="162" height="173" viewBox="0 0 162 173" fill="none" xmlns="http://www.w3.org/2000/svg">
<path d="M37.4303 78.5468C36.7125 79.9417 36.7348 80.1506 38.5543 84.8799C39.4737 87.2836 40.1842 89.3345 40.1518 89.4399C40.1193 89.5454 39.4472 90.2762 38.6636 91.0882C37.1814 92.6229 35.307 94.9169 34.4321 96.3067C34.1462 96.767 33.8157 97.1846 33.6951 97.2485C33.5572 97.3214 31.7456 97.0669 29.6432 96.6794C24.5624 95.7504 24.4488 95.7443 23.6166 95.9643C22.1345 96.3737 21.9591 96.7093 19.833 103.571C18.728 107.069 17.8084 110.291 17.7922 110.719C17.7262 111.637 18.2848 112.775 19.0471 113.298C19.3481 113.492 21.3411 114.423 23.4831 115.385C25.6332 116.321 27.4508 117.212 27.5147 117.333C27.5785 117.453 27.617 117.985 27.5947 118.526C27.5369 120.167 27.7973 123.118 28.1601 125.221C28.3517 126.333 28.4794 127.324 28.4733 127.438C28.4409 127.543 26.6911 128.823 24.5795 130.293C20.416 133.181 20.2801 133.341 20.1067 134.889C20.0114 135.668 20.0388 135.72 23.3595 141.993C27.8389 150.455 27.1587 150.087 33.6346 147.608C36.0037 146.707 38.0099 145.954 38.1407 145.951C38.2623 145.931 38.7418 146.295 39.2061 146.755C40.7692 148.333 42.2016 149.538 44.1094 150.933C45.1646 151.676 46.0618 152.371 46.1165 152.474C46.1712 152.578 45.8681 154.547 45.4331 156.852C45.0245 159.164 44.6737 161.335 44.6645 161.693C44.6706 162.705 45.3142 163.754 46.2327 164.239C46.6828 164.464 49.8648 165.516 53.2912 166.57C58.4744 168.151 59.6848 168.437 60.3356 168.291C61.7325 167.971 62.0955 167.448 64.0927 162.927C65.1207 160.617 66.0524 158.668 66.173 158.604C66.2936 158.54 66.8512 158.51 67.4098 158.523C69.0074 158.582 71.8803 158.341 74.0781 157.95C75.173 157.767 76.1553 157.622 76.2607 157.655C76.3661 157.687 77.6626 159.428 79.1335 161.54C82.0215 165.704 82.1817 165.839 83.7296 166.013C84.5082 166.108 84.5599 166.081 90.833 162.76C99.312 158.272 98.9186 158.988 96.4018 152.399C95.4824 149.995 94.7718 147.944 94.8043 147.839C94.8367 147.734 95.5088 147.003 96.2925 146.191C97.7746 144.656 99.6491 142.362 100.524 140.972C100.81 140.512 101.14 140.094 101.261 140.03C101.399 139.958 103.21 140.212 105.313 140.6C111.121 141.651 110.797 141.624 111.771 141.13C112.366 140.837 112.76 140.497 113.019 140.028C113.246 139.665 114.298 136.483 115.35 132.97C117.409 126.231 117.461 125.829 116.587 124.637C116.101 123.968 115.915 123.867 111.253 121.812C109.217 120.926 107.523 120.101 107.469 119.998C107.414 119.895 107.346 118.849 107.319 117.672C107.275 115.423 107.082 113.473 106.683 111.345C106.545 110.625 106.459 109.964 106.492 109.858C106.507 109.762 108.265 108.456 110.377 106.986C114.54 104.098 114.676 103.937 114.849 102.389C114.945 101.611 114.917 101.559 111.597 95.2858C107.108 86.8063 107.824 87.1997 101.235 89.7164C98.8317 90.6357 96.7809 91.3462 96.6755 91.3137C96.5701 91.2813 95.8392 90.6091 95.0272 89.8254C93.4925 88.3431 91.1985 86.4685 89.8087 85.5935C89.3484 85.3076 88.9308 84.9771 88.8669 84.8564C88.7939 84.7186 89.087 82.688 89.5118 80.3229C89.9448 77.9315 90.2956 75.76 90.2804 75.4813C90.2875 74.6611 89.6246 73.5338 88.8643 73.0978C88.5014 72.8707 85.3193 71.8192 81.7966 70.7494C76.4908 69.1452 75.2713 68.842 74.6204 68.9879C73.2235 69.3081 72.8606 69.8312 70.8634 74.3524C69.8354 76.6617 68.9209 78.602 68.8175 78.6567C68.7313 78.7023 67.6598 78.7621 66.4565 78.7812C64.129 78.8439 62.3276 79.0252 60.1825 79.4326C59.4617 79.5714 58.8008 79.6565 58.6953 79.6241C58.599 79.6089 57.2934 77.8509 55.8225 75.7391C52.9346 71.5754 52.7744 71.4395 51.2173 71.2488C50.4479 71.1707 50.3962 71.1981 44.1231 74.5187C37.85 77.8393 37.7983 77.8666 37.4303 78.5468ZM60.2509 94.7749C70.5353 91.78 81.2696 95.3868 87.6366 103.997C95.7502 114.949 93.2204 130.717 82.0346 138.845C75.9358 143.287 68.0915 144.681 60.7683 142.6C47.2554 138.787 39.6133 124.851 43.6545 111.437C45.2321 106.123 48.536 101.528 53.0746 98.2648C54.5841 97.1568 58.414 95.306 60.2509 94.7749Z" fill="#F4F4F4"/>
<path d="M156.87 15.4095C155.465 15.7063 155.329 15.843 153.022 19.8706C151.846 21.9139 150.8 23.6047 150.707 23.6427C150.613 23.6806 149.705 23.6259 148.675 23.5388C146.728 23.3736 144.014 23.3689 142.521 23.5512C142.029 23.6143 141.541 23.6211 141.426 23.5723C141.294 23.5166 140.427 22.0826 139.487 20.3651C137.208 16.2187 137.147 16.1346 136.509 15.6706C135.361 14.8546 135.021 14.9241 128.918 17.3825C125.794 18.6203 122.973 19.8309 122.66 20.0668C121.97 20.5506 121.484 21.6058 121.554 22.4499C121.59 22.7757 122.082 24.7297 122.637 26.8077C123.216 28.8763 123.634 30.6828 123.585 30.7979C123.536 30.9131 123.181 31.2477 122.784 31.5449C121.584 32.453 119.639 34.3448 118.355 35.8186C117.676 36.5978 117.046 37.262 116.961 37.3233C116.868 37.3612 114.947 36.8582 112.681 36.2089C108.222 34.9216 108.029 34.9177 106.83 35.6899C106.221 36.0724 106.2 36.1218 103.665 42.1089C100.245 50.1849 100.113 49.4888 105.619 52.655C107.629 53.8167 109.324 54.8062 109.402 54.8974C109.487 54.9721 109.506 55.5232 109.447 56.1191C109.231 58.1418 109.203 59.8565 109.315 62.0185C109.398 63.1979 109.423 64.2368 109.381 64.3355C109.34 64.4342 107.765 65.358 105.877 66.3817C103.998 67.4288 102.253 68.4355 101.993 68.636C101.278 69.2254 100.905 70.2895 101.092 71.2222C101.192 71.6721 102.286 74.5406 103.518 77.5843C105.393 82.1804 105.89 83.2055 106.37 83.5834C107.405 84.3905 107.987 84.3458 112.353 83.1496C114.588 82.5443 116.512 82.0786 116.627 82.1274C116.742 82.1761 117.086 82.5546 117.4 82.959C118.282 84.128 120.115 86.0293 121.664 87.3642C122.426 88.0364 123.097 88.6504 123.135 88.744C123.173 88.8377 122.687 90.7654 122.037 93.0315C120.75 97.4911 120.746 97.6834 121.518 98.8833C121.901 99.4915 121.95 99.5124 127.937 102.048C136.029 105.475 135.293 105.609 138.517 100.011C139.693 97.9678 140.739 96.277 140.833 96.239C140.926 96.2011 141.834 96.2559 142.864 96.3429C144.811 96.5081 147.525 96.5128 149.018 96.3305C149.51 96.2674 149.998 96.2606 150.113 96.3094C150.245 96.3651 151.112 97.7991 152.053 99.5167C154.664 104.25 154.497 104.005 155.411 104.411C155.963 104.665 156.433 104.747 156.915 104.66C157.304 104.612 160.173 103.518 163.277 102.234C169.255 99.7992 169.57 99.6032 169.912 98.2929C170.106 97.5603 170.07 97.3705 168.833 92.8702C168.286 90.9118 167.892 89.2318 167.933 89.1331C167.975 89.0344 168.678 88.3817 169.499 87.6816C171.071 86.3497 172.344 85.0847 173.625 83.5711C174.057 83.0555 174.477 82.6128 174.571 82.5749C174.648 82.53 176.592 83.0235 178.858 83.6729C183.318 84.9601 183.51 84.964 184.71 84.1919C185.318 83.8093 185.339 83.7599 187.874 77.7728C191.302 69.6804 191.436 70.4163 185.838 67.1919C183.795 66.0163 182.104 64.9704 182.066 64.8768C182.028 64.7831 182.083 63.8752 182.17 62.8452C182.336 60.8977 182.34 58.184 182.158 56.6908C182.095 56.1985 182.088 55.7107 182.137 55.5956C182.193 55.464 183.805 54.4978 185.73 53.4317C187.679 52.3561 189.425 51.3495 189.614 51.1774C190.201 50.7082 190.618 49.5852 190.488 48.793C190.439 48.4039 189.346 45.5354 188.069 42.4145C186.139 37.7178 185.649 36.6762 185.169 36.2983C184.134 35.4912 183.553 35.5359 179.186 36.7321C176.951 37.3375 175.044 37.8101 174.945 37.7683C174.863 37.7334 174.201 37.0068 173.491 36.1632C172.101 34.5461 170.93 33.3714 169.4 32.0833C168.885 31.6516 168.442 31.2313 168.404 31.1377C168.359 31.0605 168.853 29.1163 169.502 26.8502C170.789 22.3906 170.793 22.1983 170.028 20.982C169.639 20.3902 169.589 20.3693 163.603 17.8339C157.616 15.2984 157.566 15.2775 156.87 15.4095ZM158.542 41.0051C166.617 46.5784 170.263 56.2893 167.829 65.7917C164.743 77.8887 152.078 85.2117 139.836 81.9666C133.154 80.2034 127.626 75.4378 124.869 69.0325C119.762 57.2288 125.242 43.74 137.108 38.8527C141.795 36.8999 146.969 36.5892 151.912 37.9259C153.572 38.3574 157.102 40.0075 158.542 41.0051Z" fill="#F4F4F4"/>
</svg>
