<svg width="146" height="165" viewBox="0 0 146 165" fill="none" xmlns="http://www.w3.org/2000/svg">
<path d="M37.5474 78.1387C36.4003 78.9383 36.3308 79.1121 35.7919 83.5966C35.5139 85.8736 35.2184 87.7857 35.1489 87.8552C35.0793 87.9247 34.245 88.2202 33.2891 88.5331C31.4815 89.1241 29.0482 90.1496 27.7794 90.8796C27.3622 91.123 26.9277 91.3142 26.806 91.3142C26.667 91.3142 25.346 90.3582 23.8513 89.1762C20.2361 86.3256 20.1491 86.2734 19.4018 86.0996C18.0634 85.8041 17.7853 85.9953 13.2489 90.5146C10.9199 92.809 8.85157 94.9643 8.66038 95.2946C8.22586 95.9899 8.1911 97.1197 8.57347 97.8497C8.7299 98.1278 9.9118 99.6922 11.198 101.343C12.5016 102.977 13.5618 104.437 13.5618 104.559C13.5618 104.681 13.3706 105.115 13.1273 105.532C12.3973 106.801 11.3718 109.235 10.7808 111.043C10.468 111.999 10.1551 112.833 10.103 112.92C10.0335 112.989 8.12157 113.267 5.84468 113.545C1.36041 114.084 1.1866 114.154 0.404457 115.301C0.00469699 115.875 0.00469698 115.927 0.00469698 122.254C0.00469698 130.788 -0.377683 130.215 5.75777 130.962C7.99991 131.24 9.89442 131.484 9.99871 131.536C10.103 131.57 10.3289 132.057 10.5028 132.613C11.0763 134.508 11.702 136.055 12.6232 137.95C13.1446 138.975 13.5618 139.896 13.5618 140.001C13.5618 140.105 12.5016 141.53 11.198 143.164C9.9118 144.815 8.7299 146.38 8.57347 146.658C8.15633 147.457 8.22586 148.552 8.74728 149.317C9.008 149.682 11.0763 151.838 13.3358 154.097C16.7599 157.504 17.5942 158.234 18.1677 158.391C19.4018 158.721 19.9058 158.46 23.3646 155.731C25.1375 154.341 26.6844 153.193 26.806 153.193C26.9277 153.193 27.3796 153.402 27.8141 153.645C29.0482 154.358 31.412 155.366 33.3065 155.974C34.245 156.287 35.0793 156.583 35.1489 156.652C35.2184 156.722 35.5139 158.634 35.7919 160.911C36.3308 165.395 36.4003 165.569 37.5474 166.351C38.121 166.751 38.1731 166.751 44.4998 166.751C53.0512 166.751 52.4428 167.151 53.2076 160.911C53.4857 158.634 53.7812 156.722 53.8507 156.652C53.9202 156.583 54.7545 156.287 55.7104 155.974C57.5181 155.383 59.9514 154.358 61.2202 153.628C61.6373 153.385 62.0718 153.193 62.1935 153.193C62.3326 153.193 63.6535 154.149 65.1483 155.331C69.2849 158.582 69.0416 158.425 70.0149 158.443C70.6059 158.46 71.0578 158.356 71.4575 158.095C71.7878 157.904 73.943 155.835 76.2373 153.506C80.6694 149.057 80.878 148.761 80.6868 147.457C80.5825 146.727 80.4782 146.571 77.6625 143.008C76.4285 141.461 75.4377 140.105 75.4377 140.001C75.4377 139.896 75.8201 139.045 76.2894 138.106C77.1932 136.316 77.8537 134.699 78.4273 132.857C78.6184 132.231 78.827 131.675 78.8965 131.605C78.9487 131.536 80.878 131.24 83.1549 130.962C87.6391 130.423 87.8129 130.354 88.5951 129.206C88.9948 128.633 88.9948 128.581 88.9948 122.254C88.9948 113.702 89.3946 114.31 83.1549 113.545C80.878 113.267 78.9661 112.972 78.8965 112.902C78.827 112.833 78.5315 111.999 78.2187 111.043C77.6277 109.235 76.6023 106.801 75.8723 105.532C75.6289 105.115 75.4377 104.681 75.4377 104.559C75.4377 104.42 76.5154 102.943 77.8363 101.257C79.1746 99.5531 80.3565 97.9888 80.4608 97.7628C80.8084 97.1197 80.7563 95.9551 80.3392 95.2946C80.148 94.9643 78.0796 92.809 75.7506 90.4972C72.2397 87.0209 71.4054 86.2734 70.8318 86.117C69.5978 85.7867 69.0937 86.0475 65.6349 88.7764C63.8621 90.167 62.3326 91.3142 62.2283 91.3142C62.1414 91.3142 61.2723 90.9144 60.3164 90.4277C58.4566 89.5064 56.9619 88.8981 55.1021 88.3245C54.4764 88.1333 53.9202 87.9247 53.8507 87.8552C53.7812 87.803 53.4857 85.8736 53.2076 83.5966C52.6688 79.1121 52.5993 78.9383 51.4521 78.1387C50.8786 77.7563 50.8264 77.7563 44.4998 77.7563C38.1731 77.7563 38.121 77.7563 37.5474 78.1387ZM48.7581 100.44C58.109 102.369 65.0614 109.687 66.4866 119.125C68.3116 131.136 59.7428 142.504 47.5414 144.242C40.8845 145.198 34.1234 143.025 29.222 138.332C20.1665 129.693 19.958 115.527 28.7353 106.645C32.1941 103.116 36.7131 100.874 41.6493 100.196C43.3005 99.9529 47.0895 100.092 48.7581 100.44Z" fill="#F4F4F4"/>
<path d="M91.8421 15.2867C90.7273 15.3818 90.6096 15.4744 88.4421 18.3664C87.3384 19.833 86.3688 21.0397 86.2928 21.06C86.2168 21.0804 85.5204 20.9514 84.7328 20.7857C83.2438 20.4721 81.1474 20.2092 79.9761 20.2075C79.5897 20.2092 79.2121 20.1679 79.1278 20.1192C79.0314 20.0635 78.4986 18.8726 77.9356 17.4556C76.5709 14.0339 76.5316 13.963 76.0832 13.5435C75.274 12.8033 75.0048 12.8246 70.0533 14.1413C67.5215 14.7994 65.226 15.4655 64.9613 15.6178C64.3821 15.9258 63.906 16.6948 63.8789 17.3536C63.876 17.6089 64.0692 19.1658 64.2998 20.8246C64.5494 22.4783 64.7 23.9142 64.6513 23.9986C64.6026 24.0829 64.2963 24.3075 63.9608 24.4992C62.9473 25.0864 61.2631 26.3624 60.1304 27.3786C59.5311 27.9159 58.9806 28.3689 58.9097 28.4083C58.8337 28.4286 57.3976 27.8564 55.7085 27.1382C52.3856 25.7176 52.2373 25.6962 51.2364 26.1783C50.7299 26.4158 50.709 26.4519 48.1778 30.8362C44.7634 36.7501 44.7279 36.1997 48.6804 39.1722C50.1228 40.262 51.3383 41.1885 51.3897 41.2664C51.448 41.3322 51.4099 41.7598 51.3078 42.2148C50.9473 43.7571 50.7619 45.0795 50.6423 46.7609C50.5933 47.6801 50.5138 48.4854 50.4721 48.5576C50.4304 48.6299 49.1255 49.1934 47.5685 49.8041C46.0166 50.4337 44.5717 51.0449 44.3521 51.175C43.7431 51.5622 43.3532 52.3488 43.4086 53.0874C43.4432 53.4447 44.0141 55.7657 44.6758 58.2355C45.6855 61.9661 45.9716 62.8057 46.3064 63.1436C47.0294 63.8662 47.483 63.8871 50.9716 63.3799C52.7564 63.1256 54.2873 62.9495 54.3716 62.9982C54.4559 63.0469 54.6856 63.3722 54.8893 63.7147C55.4593 64.7022 56.694 66.3465 57.7634 67.526C58.2886 68.1183 58.7485 68.6568 58.7689 68.7328C58.7892 68.8088 58.229 70.2519 57.5108 71.9411C56.09 75.2641 56.0686 75.4124 56.5506 76.4133C56.7881 76.9198 56.8243 76.9407 61.2083 79.4718C67.1339 82.893 66.5525 82.9267 69.5789 78.9086C70.6826 77.442 71.6522 76.2353 71.7282 76.2149C71.8042 76.1946 72.5006 76.3236 73.2882 76.4892C74.7772 76.8029 76.8736 77.0658 78.0449 77.0675C78.4313 77.0658 78.8089 77.1071 78.8932 77.1558C78.9896 77.2114 79.5224 78.4023 80.0854 79.8194C81.6514 83.7267 81.5454 83.5209 82.2129 83.9224C82.6155 84.1709 82.9703 84.2794 83.3517 84.2587C83.657 84.2583 85.978 83.6872 88.4996 82.9911C93.3511 81.6808 93.6138 81.5595 94.0029 80.5797C94.2227 80.0321 94.213 79.882 93.6874 76.2863C93.4512 74.7206 93.3071 73.3848 93.3488 73.3125C93.3906 73.2403 93.9963 72.8031 94.697 72.3404C96.0395 71.4614 97.1439 70.6055 98.2785 69.5582C98.6613 69.2011 99.0284 68.8991 99.1044 68.8787C99.1683 68.8514 100.623 69.4185 102.312 70.1367C105.635 71.5574 105.784 71.5787 106.785 71.0967C107.291 70.8592 107.312 70.823 109.843 66.4388C113.265 60.5128 113.298 61.0943 109.28 58.068C107.814 56.9643 106.607 55.9947 106.587 55.9187C106.567 55.8427 106.696 55.1463 106.861 54.3587C107.175 52.8696 107.438 50.7731 107.44 49.6018C107.438 49.2154 107.479 48.8378 107.528 48.7535C107.584 48.6571 108.921 48.0644 110.511 47.4246C112.12 46.7796 113.565 46.1685 113.728 46.0536C114.226 45.747 114.656 44.9192 114.631 44.2946C114.631 43.9892 114.06 41.6682 113.371 39.1345C112.329 35.3209 112.049 34.4692 111.715 34.1314C110.992 33.4088 110.538 33.3878 107.049 33.8951C105.265 34.1494 103.746 34.3324 103.674 34.2907C103.613 34.2559 103.171 33.6312 102.703 32.9115C101.783 31.5291 100.991 30.5095 99.9315 29.368C99.5745 28.9852 99.2725 28.6181 99.2521 28.5421C99.2248 28.4782 99.792 27.023 100.51 25.3339C101.931 22.0108 101.952 21.8626 101.477 20.8496C101.233 20.3551 101.197 20.3342 96.8127 17.8031C92.4287 15.272 92.3926 15.2511 91.8421 15.2867ZM90.6885 35.2251C96.3963 40.3031 98.2863 48.1553 95.4979 55.2658C91.9573 64.3188 81.4717 68.7678 72.3214 65.0909C67.3261 63.0901 63.5102 58.8795 61.9914 53.6666C59.1725 44.0575 64.6955 34.1577 74.3312 31.5144C78.1397 30.4531 82.1682 30.7073 85.8599 32.2124C87.1014 32.7044 89.6714 34.3166 90.6885 35.2251Z" fill="#F4F4F4"/>
<path d="M157.971 78.2074C156.739 77.855 156.576 77.9061 153.079 80.117C151.3 81.2364 149.771 82.1323 149.682 82.1231C149.592 82.1139 148.9 81.6922 148.125 81.1941C146.659 80.2519 144.524 79.1166 143.271 78.6375C142.857 78.482 142.47 78.2839 142.4 78.1975C142.319 78.0987 142.234 76.6075 142.209 74.8621C142.143 70.6455 142.13 70.5536 141.821 69.9222C141.257 68.8006 140.961 68.7137 135.127 68.105C132.15 67.7776 129.423 67.555 129.078 67.6102C128.332 67.7036 127.51 68.3324 127.212 69.0262C127.105 69.2982 126.678 71.0425 126.249 72.9111C125.842 74.782 125.418 76.3796 125.331 76.4499C125.245 76.5203 124.826 76.6358 124.389 76.7042C123.065 76.9196 120.744 77.5985 119.118 78.2242C118.258 78.5549 117.484 78.8152 117.392 78.8284C117.303 78.8193 115.999 77.622 114.485 76.1655C111.509 73.2919 111.359 73.2086 110.092 73.3165C109.453 73.3643 109.416 73.3945 104.922 77.0537C98.8594 81.9896 99.0457 81.3862 102.063 86.1767C103.162 87.9302 104.085 89.4167 104.109 89.5209C104.144 89.6151 103.929 90.0571 103.635 90.5022C102.62 92.0054 101.883 93.3445 101.07 95.0946C100.644 96.0581 100.23 96.8872 100.156 96.9476C100.082 97.0079 98.4566 97.0791 96.5421 97.0981C94.6253 97.1395 92.8306 97.2047 92.5425 97.2544C91.7333 97.4206 90.9957 98.1033 90.754 98.916C90.6455 99.3123 90.3107 102.028 90.0124 104.94C89.5727 109.342 89.5367 110.357 89.7573 110.855C90.2364 111.923 90.7131 112.13 94.652 113.009C96.665 113.464 98.3746 113.899 98.445 113.985C98.5153 114.072 98.6285 114.513 98.707 114.963C98.9145 116.252 99.5654 118.514 100.229 120.211C100.55 121.059 100.822 121.822 100.813 121.912C100.804 122.002 99.6166 123.317 98.16 124.832C95.2861 127.808 95.2029 127.958 95.3107 129.225C95.3585 129.864 95.3886 129.901 99.0476 134.395C103.993 140.469 103.358 140.268 108.232 137.203C110.011 136.083 111.54 135.187 111.629 135.196C111.719 135.206 112.411 135.627 113.186 136.125C114.652 137.068 116.787 138.203 118.04 138.682C118.454 138.838 118.841 139.036 118.911 139.122C118.992 139.221 119.077 140.712 119.102 142.457C119.185 147.276 119.156 147.012 119.706 147.714C120.036 148.144 120.371 148.404 120.787 148.538C121.114 148.662 123.83 148.996 126.811 149.279C132.535 149.854 132.866 149.831 133.681 148.941C134.14 148.445 134.19 148.28 135.093 144.219C135.478 142.448 135.868 140.96 135.942 140.9C136.016 140.84 136.843 140.619 137.781 140.409C139.575 140.016 141.105 139.55 142.746 138.892C143.301 138.666 143.817 138.492 143.906 138.501C143.986 138.498 145.312 139.698 146.826 141.154C149.802 144.028 149.952 144.111 151.219 144.003C151.858 143.955 151.895 143.925 156.389 140.266C162.464 135.32 162.263 135.956 159.197 131.081C158.078 129.303 157.182 127.774 157.191 127.684C157.201 127.595 157.622 126.902 158.12 126.127C159.063 124.662 160.198 122.526 160.677 121.274C160.833 120.86 161.031 120.473 161.117 120.402C161.216 120.322 162.889 120.233 164.851 120.196C166.835 120.161 168.629 120.096 168.85 120.04C169.508 119.915 170.305 119.204 170.533 118.526C170.657 118.199 170.992 115.483 171.287 112.492C171.726 107.987 171.774 106.962 171.554 106.464C171.074 105.397 170.598 105.19 166.659 104.311C164.646 103.856 162.946 103.433 162.886 103.359C162.836 103.297 162.617 102.449 162.41 101.488C161.989 99.6343 161.556 98.2207 160.888 96.5679C160.662 96.0129 160.489 95.4972 160.498 95.4076C160.495 95.328 161.694 94.0023 163.151 92.4878C166.025 89.5115 166.108 89.3616 166.013 88.0843C165.952 87.4557 165.922 87.4187 162.263 82.9247C158.604 78.4307 158.574 78.3936 157.971 78.2074ZM148.613 99.0684C152.651 106.826 151.474 115.997 145.594 122.468C138.118 130.711 125.087 131.199 116.796 123.537C112.267 119.361 109.9 113.302 110.399 107.106C111.298 95.6778 121.24 87.3366 132.625 88.4344C137.132 88.8506 141.339 90.7638 144.675 93.878C145.803 94.9102 147.895 97.6821 148.613 99.0684Z" fill="#F4F4F4"/>
</svg>
