<svg width="324" height="293" viewBox="0 0 324 293" fill="none" xmlns="http://www.w3.org/2000/svg">
<path d="M98.3687 50.2006L105.426 46.7869L97.0904 32.9429L103.572 29.8079L111.908 43.6518L115.509 41.9101L121.204 51.3679L115.01 54.3636L112.534 50.2515L95.106 58.6814L83.551 39.4917L90.0326 36.3567L98.3687 50.2006Z" fill="white"/>
<path d="M130.068 44.469L128.561 39.0756L139.591 36.6391L141.098 42.0324L130.068 44.469ZM125.546 28.289L124.039 22.8957L135.069 20.4591L136.576 25.8524L125.546 28.289ZM127.7 35.9937L126.235 30.7545L136.64 28.456L138.105 33.6952L127.7 35.9937ZM119.289 23.9449L125.851 22.4953L131.881 44.0686L125.319 45.5181L119.289 23.9449Z" fill="white"/>
<path d="M153.352 32.5202L153.383 26.2803L171.302 26.4585L171.271 32.6984L153.352 32.5202ZM166.956 18.735L173.996 18.805L173.884 41.2048L166.845 41.1347L166.956 18.735ZM151.917 18.5855L158.957 18.6555L158.845 41.0552L151.805 40.9852L151.917 18.5855Z" fill="white"/>
<path d="M186.232 26.6375L187.976 20.6461L207.262 25.3004L205.518 31.2917L199.297 29.7904L194.781 45.3065L187.937 43.655L192.453 28.1389L186.232 26.6375Z" fill="white"/>
<path d="M222.709 31.912L228.99 35.0905L217.193 54.1324L210.912 50.9538L222.709 31.912ZM223.814 38.724L226.763 33.9636L230.561 35.8852C232.521 36.8773 233.948 37.9445 234.84 39.0869C235.752 40.2389 236.19 41.449 236.154 42.7173C236.149 43.977 235.725 45.2869 234.882 46.6471C234.051 47.9891 233.037 49.0004 231.84 49.6811C230.662 50.3715 229.292 50.6665 227.728 50.5664C226.184 50.4758 224.432 49.9345 222.471 48.9424L218.674 47.0208L221.623 42.2604L225.421 44.182C226.201 44.5769 226.887 44.7213 227.477 44.6153C228.068 44.5093 228.538 44.1752 228.886 43.613C229.234 43.0508 229.304 42.5144 229.095 42.0039C228.887 41.4933 228.392 41.0405 227.612 40.6456L223.814 38.724Z" fill="white"/>
<path d="M264.368 81.7051L269.115 79.0483L275.381 88.0604L270.634 90.7172L264.368 81.7051ZM272.733 88.9947C273.738 88.4321 274.409 87.6673 274.746 86.7005C275.082 85.7336 275.144 84.7256 274.932 83.6765C274.738 82.6169 274.343 81.658 273.746 80.7997C273.15 79.9414 272.502 79.2332 271.804 78.6751C271.105 78.117 270.437 77.676 269.798 77.3523C269.19 77.0356 268.68 76.7857 268.268 76.6025L273.741 73.5394C274.781 73.9554 275.775 74.4936 276.726 75.1539C277.676 75.8143 278.614 76.8101 279.54 78.1413C280.66 79.7528 281.429 81.3421 281.846 82.9092C282.275 84.4938 282.356 86.0055 282.09 87.4444C281.823 88.8833 281.233 90.211 280.32 91.4274C279.408 92.6439 278.169 93.6897 276.606 94.5649C275.042 95.44 273.45 95.9779 271.831 96.1784C270.212 96.3789 268.624 96.2703 267.066 95.8524C265.509 95.4346 264.031 94.7043 262.634 93.6614C261.249 92.6361 259.996 91.3177 258.876 89.7062C257.95 88.375 257.375 87.176 257.151 86.1094C256.908 85.0531 256.797 84.02 256.819 83.0101L262.293 79.947C262.295 80.3594 262.311 80.8854 262.342 81.525C262.404 82.1718 262.561 82.8992 262.812 83.7074C263.064 84.5155 263.488 85.3488 264.085 86.2071C264.681 87.0654 265.467 87.8055 266.443 88.4275C267.418 89.0495 268.455 89.4428 269.552 89.6074C270.667 89.7615 271.728 89.5573 272.733 88.9947Z" fill="white"/>
<path d="M298.068 119.716L276.509 125.798L274.102 119.012L289.655 114.625L287.676 109.046L282.286 110.566C279.843 111.255 277.751 111.469 276.009 111.209C274.275 110.968 272.802 110.189 271.589 108.872C270.405 107.57 269.377 105.692 268.507 103.239L274.205 101.632C274.39 102.155 274.63 102.607 274.923 102.989C275.237 103.365 275.598 103.65 276.006 103.844C276.421 104.059 276.883 104.183 277.391 104.217C277.9 104.25 278.442 104.186 279.017 104.024L291.275 100.566L298.068 119.716Z" fill="white"/>
<path d="M277.238 137.908L282.832 137.647L283.563 148.919L277.969 149.18L277.238 137.908ZM294.02 137.125L299.614 136.864L300.345 148.136L294.751 148.397L294.02 137.125ZM286.029 137.498L291.463 137.244L292.152 147.878L286.718 148.132L286.029 137.498ZM299.299 132.01L299.734 138.716L277.358 139.76L276.923 133.054L299.299 132.01Z" fill="white"/>
<path d="M299.624 161.006L298.061 168.198L276.022 164.192L277.585 157L299.624 161.006ZM296.599 174.921L294.859 182.926L286.388 172.512L272.718 179.389L274.526 171.071L287.942 164.311L296.599 174.921Z" fill="white"/>
<path d="M286.204 189.652L291.927 192.138L282.629 209.664L276.906 207.178L279.905 201.524L265.083 195.086L268.383 188.867L283.204 195.305L286.204 189.652Z" fill="white"/>
<path d="M256.067 230.903L257.462 205.604L263.985 210.744L262.59 236.043L256.067 230.903ZM271.628 224.719L257.981 214.382L257.462 205.604L276.211 219.804L271.628 224.719ZM262.59 236.043L243.841 221.843L248.424 216.928L261.817 227.071L262.59 236.043Z" fill="white"/>
<path d="M239.454 238.255L241.248 240.509L238.205 242.462C237.756 242.75 237.434 243.045 237.24 243.346C237.046 243.647 236.963 243.952 236.992 244.262C237.022 244.571 237.156 244.876 237.395 245.176C237.753 245.627 238.174 245.849 238.657 245.841C239.135 245.863 239.715 245.654 240.397 245.216L241.878 244.265L234.505 235.001L232.485 236.298C232.037 236.586 231.65 236.884 231.326 237.193C231.002 237.502 230.81 237.84 230.749 238.206C230.689 238.573 230.844 238.99 231.216 239.458C231.442 239.741 231.693 239.921 231.97 239.995C232.242 240.098 232.527 240.117 232.827 240.05C233.14 240.001 233.463 239.895 233.795 239.732C234.108 239.581 234.436 239.396 234.777 239.177L238.359 236.878L240.75 239.883L236.36 242.7C235.445 243.288 234.449 243.776 233.374 244.163C232.295 244.579 231.203 244.826 230.099 244.904C228.995 244.982 227.943 244.837 226.945 244.469C225.943 244.129 225.069 243.492 224.325 242.557C223.395 241.389 222.966 240.252 223.036 239.148C223.088 238.055 223.581 236.97 224.513 235.892C225.428 234.826 226.72 233.757 228.39 232.685L237.142 227.067L251.09 244.594L242.877 249.866C241.476 250.765 240.096 251.399 238.735 251.768C237.356 252.149 236.078 252.213 234.9 251.96C233.723 251.707 232.735 251.08 231.938 250.078C231.155 249.093 230.807 248.043 230.895 246.927C230.997 245.828 231.458 244.737 232.279 243.656C233.095 242.602 234.203 241.626 235.604 240.727L239.454 238.255Z" fill="white"/>
<path d="M216.338 250.102L218.817 255.828L201.882 261.684L199.402 255.958L216.338 250.102ZM209.076 267.299L202.423 269.6L193.522 249.044L200.176 246.744L209.076 267.299ZM223.291 262.384L216.637 264.685L207.736 244.129L214.39 241.828L223.291 262.384Z" fill="white"/>
<path d="M172.416 273.893L165.254 274.636L162.253 252.438L169.415 251.695L172.416 273.893ZM192.468 271.814L185.466 272.54L182.465 250.342L189.467 249.616L192.468 271.814ZM186.255 259.757L187.005 265.306L182.772 265.745C180.586 265.972 178.773 265.849 177.332 265.377C175.87 264.907 174.743 264.134 173.952 263.058C173.143 262.006 172.631 260.687 172.417 259.102C172.206 257.537 172.352 256.15 172.855 254.94C173.337 253.732 174.227 252.751 175.523 251.994C176.798 251.241 178.529 250.75 180.714 250.524L184.947 250.085L185.698 255.634L181.464 256.073C180.87 256.135 180.392 256.259 180.03 256.447C179.671 256.656 179.418 256.929 179.269 257.265C179.1 257.605 179.044 257.986 179.101 258.408C179.161 258.852 179.317 259.211 179.57 259.485C179.803 259.783 180.121 259.985 180.523 260.094C180.928 260.223 181.428 260.257 182.022 260.196L186.255 259.757Z" fill="white"/>
<path d="M140.355 272.489L131.621 271.409L140.425 261.344L134.371 249.183L143.105 250.264L145.568 256.887L149.932 251.108L158.666 252.189L149.158 262.424L154.646 274.257L145.912 273.177L143.96 267.487L140.355 272.489Z" fill="white"/>
<path d="M91.0357 241.179L97.7923 234.736L104.051 238.905L85.6888 254.797L85.0954 239.939L69.1763 243.799L80.614 223.294L86.8727 227.463L82.0337 235.183L91.0148 232.709L91.0357 241.179Z" fill="white"/>
<path d="M65.7447 222.072C66.6227 221.429 67.2612 220.712 67.6605 219.92C68.0597 219.128 68.1981 218.317 68.0755 217.486C67.9358 216.668 67.515 215.872 66.8132 215.097C66.1114 214.323 65.3291 213.791 64.4663 213.502C63.5863 213.226 62.6746 213.183 61.7311 213.374C60.7876 213.565 59.8769 213.982 58.9989 214.625C58.1038 215.28 57.458 215.989 57.0616 216.753C56.6481 217.529 56.5112 218.326 56.6509 219.144C56.7592 219.958 57.1857 220.777 57.9304 221.599C58.6322 222.374 59.4231 222.899 60.3031 223.175C61.1659 223.464 62.069 223.513 63.0125 223.322C63.9388 223.144 64.8495 222.727 65.7447 222.072ZM70.7503 227.597C69.3043 228.656 67.7812 229.376 66.1809 229.759C64.5806 230.141 62.9792 230.222 61.3766 230.002C59.774 229.781 58.2405 229.273 56.776 228.478C55.3115 227.683 53.9921 226.638 52.8177 225.341C51.6146 224.013 50.7284 222.624 50.1591 221.174C49.5898 219.724 49.3474 218.271 49.4318 216.815C49.5163 215.36 49.9361 213.975 50.6914 212.659C51.4466 211.344 52.5472 210.157 53.9933 209.099C55.4393 208.04 56.9725 207.299 58.5929 206.876C60.1817 206.449 61.7875 206.326 63.4102 206.505C65.0329 206.685 66.5923 207.174 68.0883 207.972C69.5871 208.741 70.9524 209.806 72.1842 211.166C73.4159 212.526 74.3063 213.951 74.8555 215.442C75.4076 216.905 75.6171 218.369 75.4839 219.834C75.3507 221.298 74.8979 222.695 74.1254 224.023C73.3214 225.347 72.1964 226.539 70.7503 227.597Z" fill="white"/>
<path d="M45.698 194.315L57.2038 193.533L61.0139 200.929L34.6648 198.869L50.0231 179.594L53.8332 186.99L45.698 194.315ZM53.475 184.206L59.3368 195.585L62.5905 194.242L65.8878 200.643L57.1618 204.244L44.7055 180.064L53.4315 176.462L56.7288 182.863L53.475 184.206Z" fill="white"/>
<path d="M23.4586 157.133L47.701 163.869L49.1248 170.764L41.642 168.832L27.8596 178.443L26.3063 170.922L37.6271 164.882L38.1772 167.546L24.9148 164.184L23.4586 157.133Z" fill="white"/>
<path d="M24.5249 125.793L46.8754 127.282L46.3374 134.461L30.2131 133.388L29.7708 139.291L35.3584 139.663C37.8914 139.832 39.9078 140.33 41.4075 141.156C42.9088 141.962 43.9509 143.186 44.5338 144.828C45.097 146.448 45.2813 148.555 45.0868 151.151L39.1799 150.757C39.2214 150.204 39.1843 149.699 39.0688 149.243C38.932 148.785 38.7151 148.396 38.4181 148.077C38.1227 147.736 37.7473 147.466 37.2917 147.264C36.8362 147.063 36.3104 146.942 35.7144 146.903L23.0065 146.056L24.5249 125.793Z" fill="white"/>
<path d="M49.8898 115.676L44.5302 114.053L48.4247 103.449L53.7843 105.072L49.8898 115.676ZM33.8109 110.807L28.4513 109.183L32.3458 98.58L37.7054 100.203L33.8109 110.807ZM41.4675 113.125L36.261 111.549L39.9349 101.546L45.1414 103.123L41.4675 113.125ZM26.7743 113.749L29.0912 107.441L50.5297 113.934L48.2128 120.242L26.7743 113.749Z" fill="white"/>
<path d="M56.2308 72.7983L58.0462 98.1957L50.951 93.8761L49.1355 68.4787L56.2308 72.7983ZM41.6342 80.8863L56.4255 89.5068L58.0462 98.1957L37.7255 86.3525L41.6342 80.8863ZM49.1355 68.4787L69.4563 80.3219L65.5475 85.7881L51.0327 77.3288L49.1355 68.4787ZM34.9855 77.8595L37.1446 74.8401C37.5133 75.0549 37.8548 75.1433 38.1692 75.1053C38.4836 75.0673 38.7522 74.9656 38.9748 74.8004C39.1974 74.6351 39.3708 74.4657 39.4949 74.2922C39.619 74.1186 39.7186 73.9063 39.7938 73.6551C39.869 73.4038 39.861 73.1411 39.7699 72.8667C39.6789 72.5924 39.449 72.3478 39.0804 72.133L41.2395 69.1135C42.0505 69.5861 42.6452 70.1786 43.0237 70.8909C43.4022 71.6032 43.5308 72.3911 43.4095 73.2546C43.3006 74.1008 42.9173 74.9837 42.2596 75.9035C41.6144 76.8058 40.8809 77.4847 40.0591 77.94C39.2374 78.3953 38.3891 78.6139 37.5143 78.5957C36.6394 78.5776 35.7965 78.3322 34.9855 77.8595Z" fill="white"/>
<path d="M246.698 127.262L196.27 134.181L240.319 108.454L233.151 96.1638L189.824 121.456L178.035 136.688L196.266 134.18L180.342 143.487L198.902 148.229L179.824 150.837L194.319 161.853L176.585 157.326L186.193 173.757L170.995 162.221L173.29 180.302L164.12 164.599L159.124 183.116L165.33 232.28L179.619 230.31L173.29 180.302L198.646 223.753L211.099 216.461L186.195 173.76L225.656 203.721L234.481 192.336L194.338 161.846L243.414 174.385L247.157 160.528L198.92 148.221L248.497 141.434L246.696 127.266L246.698 127.262Z" fill="url(#paint0_linear_77_5247)"/>
<path d="M173.174 131.196L189.82 121.455L220.503 81.8647L209.134 73.2525L177.957 113.524L173.174 131.196Z" fill="url(#paint1_linear_77_5247)"/>
<path d="M150.25 161.069L133.574 170.803L145.363 155.571L127.149 158.069L143.072 148.762L124.524 144.04L143.591 141.412L129.088 130.427L146.81 134.935L137.233 118.511L152.42 130.028L150.137 111.966L159.295 127.65L164.286 109.163L166.689 128.07L177.963 113.528L191.199 64.5982L177.295 61.0554L164.294 109.132L158.068 59.979L143.799 61.9374L150.128 111.946L124.772 68.4948L112.318 75.7869L137.223 118.488L97.7631 88.529L88.9483 99.9303L129.082 130.405L80.0048 117.866L76.2618 131.723L124.499 144.029L74.9341 150.836L76.7077 164.997L127.154 158.066L83.0866 183.805L90.2519 196.096L133.578 170.804L102.915 210.382L114.284 218.995L145.472 178.742L150.255 161.07L150.25 161.069Z" fill="url(#paint2_linear_77_5247)"/>
<path d="M145.468 178.741L138.846 203.197L132.221 227.655L146.124 231.195L159.125 183.118L156.728 164.182L145.468 178.741Z" fill="url(#paint3_linear_77_5247)"/>
<defs>
<linearGradient id="paint0_linear_77_5247" x1="60.1302" y1="144.008" x2="322.766" y2="185.869" gradientUnits="userSpaceOnUse">
<stop stop-color="#E299C7"/>
<stop offset="0.52" stop-color="#9563D5"/>
<stop offset="1" stop-color="#369996"/>
</linearGradient>
<linearGradient id="paint1_linear_77_5247" x1="69.6052" y1="84.5631" x2="332.241" y2="126.424" gradientUnits="userSpaceOnUse">
<stop stop-color="#E299C7"/>
<stop offset="0.52" stop-color="#9563D5"/>
<stop offset="1" stop-color="#369996"/>
</linearGradient>
<linearGradient id="paint2_linear_77_5247" x1="62.6917" y1="127.949" x2="325.325" y2="169.812" gradientUnits="userSpaceOnUse">
<stop stop-color="#E299C7"/>
<stop offset="0.52" stop-color="#9563D5"/>
<stop offset="1" stop-color="#369996"/>
</linearGradient>
<linearGradient id="paint3_linear_77_5247" x1="53.835" y1="183.507" x2="316.471" y2="225.369" gradientUnits="userSpaceOnUse">
<stop stop-color="#E299C7"/>
<stop offset="0.52" stop-color="#9563D5"/>
<stop offset="1" stop-color="#369996"/>
</linearGradient>
</defs>
</svg>
