<svg width="325" height="325" viewBox="0 0 325 325" fill="none" xmlns="http://www.w3.org/2000/svg">
<path d="M100.063 56.7528L106.962 53.0296L99.2817 38.8114L105.618 35.3922L113.298 49.6103L116.819 47.7108L122.066 57.4242L116.011 60.6914L113.73 56.4682L96.692 65.6622L86.0459 45.9538L92.3822 42.5346L100.063 56.7528Z" fill="white"/>
<path d="M131.277 50.2787L129.925 44.8443L140.887 42.1197L142.239 47.554L131.277 50.2787ZM127.22 33.9757L125.868 28.5414L136.831 25.8168L138.183 31.2511L127.22 33.9757ZM129.152 41.739L127.838 36.46L138.18 33.8897L139.493 39.1688L129.152 41.739ZM121.148 29.7146L127.669 28.0937L133.078 49.831L126.556 51.4519L121.148 29.7146Z" fill="white"/>
<path d="M154.241 37.5749L154.288 31.3351L172.208 31.4714L172.16 37.7112L154.241 37.5749ZM167.882 23.7583L174.922 23.8118L174.752 46.2112L167.712 46.1576L167.882 23.7583ZM152.843 23.6439L159.882 23.6974L159.712 46.0968L152.673 46.0433L152.843 23.6439Z" fill="white"/>
<path d="M186.454 31.8213L188.052 25.7895L207.232 30.8671L205.633 36.899L199.446 35.261L195.307 50.8819L188.502 49.0801L192.641 33.4592L186.454 31.8213Z" fill="white"/>
<path d="M222.42 37.2087L228.564 40.6457L217.62 60.1903L211.476 56.7532L222.42 37.2087ZM223.65 44.3133L226.386 39.4271L230.1 41.505C232.018 42.5778 233.421 43.7173 234.31 44.9237C235.218 46.1405 235.67 47.4077 235.666 48.7253C235.691 50.0347 235.312 51.3874 234.53 52.7835C233.759 54.1609 232.804 55.1907 231.664 55.873C230.542 56.5657 229.225 56.8435 227.713 56.7063C226.219 56.5795 224.513 55.9797 222.596 54.9069L218.881 52.8291L221.617 47.943L225.332 50.0208C226.095 50.4478 226.761 50.6125 227.329 50.5148C227.897 50.4171 228.343 50.0797 228.666 49.5027C228.989 48.9256 229.044 48.3695 228.83 47.8344C228.616 47.2992 228.127 46.8181 227.364 46.3911L223.65 44.3133Z" fill="white"/>
<path d="M264.473 90.846L269.089 87.9671L274.902 97.2775L270.286 100.156L264.473 90.846ZM272.34 98.3098C273.317 97.7002 273.978 96.8857 274.322 95.8663C274.667 94.8469 274.749 93.79 274.569 92.6956C274.406 91.5899 274.048 90.5937 273.495 89.707C272.941 88.8203 272.336 88.0918 271.678 87.5216C271.02 86.9513 270.388 86.5031 269.782 86.1771C269.205 85.8578 268.722 85.6065 268.33 85.4231L273.652 82.1039C274.64 82.5184 275.583 83.0618 276.481 83.734C277.378 84.4062 278.256 85.4299 279.115 86.8052C280.154 88.4701 280.857 90.1188 281.222 91.7514C281.599 93.4022 281.643 94.9837 281.355 96.496C281.067 98.0082 280.471 99.4106 279.568 100.703C278.665 101.996 277.453 103.116 275.932 104.064C274.412 105.013 272.872 105.608 271.314 105.851C269.755 106.094 268.233 106.013 266.747 105.607C265.262 105.201 263.86 104.466 262.542 103.402C261.235 102.357 260.062 101.002 259.023 99.3368C258.164 97.9615 257.639 96.7176 257.447 95.6051C257.238 94.5039 257.154 93.4243 257.198 92.3662L262.52 89.047C262.513 89.4789 262.517 90.0294 262.532 90.6986C262.577 91.3746 262.711 92.1333 262.935 92.9745C263.158 93.8157 263.547 94.6797 264.1 95.5664C264.654 96.4531 265.392 97.2122 266.314 97.8437C267.237 98.4753 268.223 98.866 269.272 99.0161C270.34 99.1549 271.362 98.9195 272.34 98.3098Z" fill="white"/>
<path d="M297.594 131.199L276.238 137.956L274.064 131.092L289.471 126.218L287.683 120.574L282.344 122.263C279.924 123.029 277.862 123.301 276.158 123.079C274.461 122.878 273.035 122.121 271.88 120.808C270.753 119.509 269.796 117.618 269.01 115.137L274.655 113.352C274.822 113.88 275.045 114.336 275.322 114.718C275.62 115.093 275.967 115.375 276.362 115.564C276.764 115.772 277.214 115.887 277.713 115.908C278.212 115.929 278.747 115.85 279.316 115.669L291.459 111.828L297.594 131.199Z" fill="white"/>
<path d="M277.84 152.56L283.431 152.251L284.056 163.53L278.464 163.839L277.84 152.56ZM294.614 151.633L300.206 151.324L300.83 162.603L295.239 162.912L294.614 151.633ZM286.627 152.075L292.058 151.774L292.647 162.414L287.215 162.714L286.627 152.075ZM299.937 146.468L300.308 153.177L277.943 154.413L277.571 147.704L299.937 146.468Z" fill="white"/>
<path d="M299.934 178.889L298.499 186.108L276.528 181.745L277.963 174.526L299.934 178.889ZM297.158 192.856L295.562 200.891L286.969 190.278L273.497 196.999L275.156 188.65L288.377 182.043L297.158 192.856Z" fill="white"/>
<path d="M285.634 210.195L291.26 212.894L282.673 230.779L277.047 228.081L279.817 222.311L265.246 215.322L268.293 208.976L282.864 215.965L285.634 210.195Z" fill="white"/>
<path d="M255.899 254.36L256.991 227.698L263.259 233.171L262.168 259.833L255.899 254.36ZM270.678 247.967L257.568 236.958L256.991 227.698L275.002 242.823L270.678 247.967ZM262.168 259.833L244.156 244.708L248.48 239.564L261.345 250.367L262.168 259.833Z" fill="white"/>
<path d="M238.832 262.904L240.508 265.247L237.566 267.349C237.132 267.659 236.82 267.974 236.629 268.294C236.438 268.614 236.354 268.936 236.376 269.261C236.399 269.586 236.522 269.904 236.745 270.217C237.08 270.685 237.479 270.912 237.94 270.897C238.396 270.912 238.954 270.683 239.614 270.212L241.046 269.189L234.157 259.559L232.205 260.954C231.771 261.264 231.396 261.584 231.081 261.914C230.767 262.244 230.577 262.602 230.513 262.989C230.448 263.376 230.59 263.812 230.938 264.298C231.149 264.593 231.386 264.778 231.649 264.852C231.907 264.956 232.179 264.971 232.467 264.896C232.767 264.839 233.077 264.723 233.397 264.546C233.7 264.383 234.016 264.183 234.346 263.947L237.808 261.473L240.042 264.596L235.799 267.629C234.914 268.261 233.954 268.79 232.92 269.214C231.881 269.668 230.833 269.945 229.776 270.045C228.72 270.144 227.717 270.008 226.77 269.637C225.817 269.295 224.993 268.638 224.298 267.667C223.429 266.452 223.038 265.263 223.124 264.101C223.193 262.95 223.682 261.801 224.592 260.652C225.484 259.516 226.737 258.372 228.351 257.218L236.813 251.171L249.846 269.39L241.905 275.064C240.551 276.032 239.221 276.72 237.914 277.13C236.589 277.552 235.366 277.639 234.245 277.392C233.124 277.144 232.191 276.5 231.446 275.459C230.714 274.435 230.399 273.336 230.503 272.161C230.619 271.003 231.078 269.848 231.881 268.698C232.679 267.577 233.755 266.532 235.109 265.565L238.832 262.904Z" fill="white"/>
<path d="M215.472 274.764L217.726 280.583L201.014 287.05L198.76 281.232L215.472 274.764ZM207.877 292.63L201.311 295.17L193.22 274.283L199.785 271.742L207.877 292.63ZM221.903 287.202L215.338 289.742L207.246 268.855L213.812 266.314L221.903 287.202Z" fill="white"/>
<path d="M172.088 300.092L164.938 300.939L162.298 278.695L169.448 277.848L172.088 300.092ZM192.108 297.718L185.117 298.547L182.477 276.303L189.468 275.474L192.108 297.718ZM186.106 285.701L186.766 291.262L182.54 291.763C180.357 292.022 178.552 291.925 177.123 291.471C175.673 291.02 174.563 290.26 173.791 289.191C173.001 288.146 172.512 286.83 172.324 285.241C172.137 283.673 172.305 282.278 172.826 281.056C173.326 279.837 174.228 278.839 175.532 278.061C176.815 277.286 178.547 276.769 180.729 276.51L184.955 276.009L185.616 281.57L181.389 282.071C180.796 282.142 180.318 282.274 179.954 282.467C179.593 282.682 179.335 282.959 179.183 283.3C179.008 283.643 178.946 284.026 178.997 284.45C179.05 284.894 179.2 285.253 179.447 285.524C179.675 285.819 179.989 286.018 180.388 286.121C180.789 286.246 181.286 286.273 181.879 286.202L186.106 285.701Z" fill="white"/>
<path d="M140.902 298.671L132.18 297.502L140.851 287.493L134.681 275.237L143.403 276.406L145.932 283.073L150.222 277.32L158.944 278.489L149.573 288.662L155.174 300.584L146.452 299.415L144.443 293.689L140.902 298.671Z" fill="white"/>
<path d="M92.2788 265.82L98.6429 259.142L104.694 263.607L87.3734 280.057L86.5773 264.437L71.4088 268.277L82.0346 246.888L88.0857 251.353L83.5755 259.398L92.1286 256.921L92.2788 265.82Z" fill="white"/>
<path d="M66.4187 245.688C67.2624 245.001 67.8789 244.238 68.268 243.399C68.6572 242.559 68.7979 241.702 68.6901 240.827C68.5658 239.965 68.1735 239.129 67.5131 238.319C66.8527 237.508 66.113 236.955 65.2938 236.659C64.4582 236.377 63.5897 236.341 62.6884 236.552C61.7872 236.763 60.9147 237.212 60.0709 237.899C59.2107 238.6 58.5875 239.355 58.2014 240.164C57.7988 240.987 57.6596 241.829 57.7839 242.691C57.8782 243.55 58.2757 244.409 58.9765 245.269C59.6369 246.079 60.3849 246.626 61.2206 246.908C62.0397 247.204 62.8999 247.246 63.8012 247.035C64.6859 246.838 65.5584 246.389 66.4187 245.688ZM71.129 251.468C69.7393 252.599 68.2799 253.375 66.7506 253.795C65.2213 254.215 63.6942 254.316 62.1692 254.1C60.6443 253.883 59.1883 253.363 57.8013 252.539C56.4143 251.715 55.1682 250.625 54.063 249.269C52.931 247.88 52.1015 246.423 51.5748 244.899C51.048 243.375 50.8328 241.844 50.9292 240.308C51.0255 238.771 51.4408 237.305 52.1749 235.91C52.909 234.514 53.971 233.251 55.3606 232.12C56.7503 230.988 58.2196 230.191 59.7685 229.728C61.2874 229.261 62.8191 229.115 64.3636 229.288C65.9082 229.461 67.389 229.961 68.806 230.788C70.2261 231.585 71.5157 232.694 72.6747 234.116C73.8338 235.539 74.6669 237.034 75.174 238.601C75.6842 240.139 75.8679 241.682 75.725 243.228C75.582 244.775 75.1353 246.253 74.3846 247.662C73.6039 249.068 72.5187 250.337 71.129 251.468Z" fill="white"/>
<path d="M46.4378 215.471L57.6278 214.364L61.1145 221.918L35.5985 220.469L51.0567 200.128L54.5434 207.682L46.4378 215.471ZM54.2753 204.81L59.6395 216.432L62.8361 214.958L65.8534 221.495L57.2808 225.448L45.8819 200.752L54.4545 196.799L57.4719 203.336L54.2753 204.81Z" fill="white"/>
<path d="M24.0481 175.586L47.9782 181.914L49.2456 188.839L41.856 187.034L27.9653 196.99L26.5828 189.436L37.9531 183.128L38.4427 185.804L25.3443 182.668L24.0481 175.586Z" fill="white"/>
<path d="M25.007 140.837L47.3515 142.413L46.8447 149.595L30.7247 148.458L30.308 154.364L35.8942 154.758C38.4266 154.936 40.444 155.442 41.9464 156.275C43.4503 157.087 44.4971 158.316 45.0867 159.961C45.6566 161.584 45.8499 163.694 45.6667 166.29L39.7614 165.873C39.8004 165.32 39.7612 164.815 39.6438 164.357C39.5051 163.898 39.2866 163.509 38.9884 163.188C38.6918 162.847 38.3153 162.574 37.8592 162.371C37.403 162.168 36.877 162.045 36.2812 162.003L23.5767 161.107L25.007 140.837Z" fill="white"/>
<path d="M51.2436 128.246L45.9307 126.476L49.5043 115.76L54.8172 117.531L51.2436 128.246ZM35.305 122.936L29.9921 121.166L33.5658 110.45L38.8786 112.22L35.305 122.936ZM42.8948 125.465L37.7338 123.745L41.1049 113.636L46.266 115.356L42.8948 125.465ZM28.4534 125.78L30.5793 119.405L51.8308 126.486L49.7048 132.861L28.4534 125.78Z" fill="white"/>
<path d="M57.7016 82.1117L59.9605 108.701L53.0556 104.057L50.7967 77.4675L57.7016 82.1117ZM43.8404 90.3067L58.2273 99.5864L59.9605 108.701L40.1954 95.9522L43.8404 90.3067ZM50.7967 77.4675L70.5618 90.2162L66.9168 95.8618L52.7989 86.7556L50.7967 77.4675ZM37.3906 87.0223L39.404 83.9038C39.7626 84.1351 40.0925 84.2337 40.3939 84.1996C40.6952 84.1655 40.9512 84.064 41.1618 83.8952C41.3723 83.7264 41.5355 83.5524 41.6512 83.3731C41.7669 83.1939 41.8583 82.9736 41.9255 82.7123C41.9926 82.451 41.9797 82.1761 41.8866 81.8876C41.7935 81.5991 41.5677 81.3392 41.2092 81.1079L43.2226 77.9894C44.0114 78.4982 44.5949 79.1284 44.973 79.88C45.3511 80.6316 45.4906 81.4578 45.3915 82.3586C45.304 83.2414 44.9536 84.1578 44.3403 85.1077C43.7386 86.0396 43.0476 86.7363 42.2672 87.1976C41.4869 87.659 40.6763 87.8723 39.8353 87.8376C38.9943 87.8029 38.1794 87.5311 37.3906 87.0223Z" fill="white"/>
<path d="M247.285 140.509L196.829 148.367L240.971 119.645L233.844 106.021L190.426 134.258L178.583 151.214L196.825 148.366L180.867 158.756L199.413 163.958L180.323 166.92L194.783 179.104L177.062 174.138L186.615 192.352L171.454 179.593L173.687 199.664L164.571 182.257L159.51 202.838L165.549 257.414L179.845 255.178L173.687 199.664L198.897 247.83L211.377 239.689L186.616 192.355L225.979 225.492L234.844 212.818L194.801 179.095L243.84 192.852L247.631 177.45L199.431 163.95L249.036 156.242L247.284 140.514L247.285 140.509Z" fill="url(#paint0_linear_77_5247)"/>
<path d="M173.741 145.131L190.421 134.257L221.244 90.1849L209.903 80.6599L178.585 125.49L173.741 145.131Z" fill="url(#paint1_linear_77_5247)"/>
<path d="M150.712 178.385L134 189.251L145.843 172.295L127.618 175.133L143.575 164.743L125.041 159.562L144.119 156.578L129.652 144.429L147.361 149.374L137.84 131.168L152.988 143.906L150.767 123.856L159.872 141.241L164.927 120.693L167.266 141.682L178.591 125.494L191.997 71.1108L178.103 67.2242L164.935 120.659L158.877 66.095L144.6 68.3188L150.758 123.832L125.549 75.6664L113.069 83.8073L137.829 131.142L98.4683 98.0078L89.6134 110.699L129.646 144.404L80.6072 130.648L76.8162 146.049L125.016 159.55L75.4227 167.279L77.1478 183L127.624 175.129L83.4626 203.864L90.5865 217.49L134.005 189.253L103.202 233.311L114.542 242.836L145.873 198.027L150.716 178.386L150.712 178.385Z" fill="url(#paint2_linear_77_5247)"/>
<path d="M145.868 198.026L139.161 225.208L132.452 252.392L146.344 256.275L159.512 202.841L157.179 181.819L145.868 198.026Z" fill="url(#paint3_linear_77_5247)"/>
<defs>
<linearGradient id="paint0_linear_77_5247" x1="60.6406" y1="159.748" x2="324.181" y2="198.373" gradientUnits="userSpaceOnUse">
<stop stop-color="#E299C7"/>
<stop offset="0.52" stop-color="#9563D5"/>
<stop offset="1" stop-color="#369996"/>
</linearGradient>
<linearGradient id="paint1_linear_77_5247" x1="70.3211" y1="93.7004" x2="333.861" y2="132.326" gradientUnits="userSpaceOnUse">
<stop stop-color="#E299C7"/>
<stop offset="0.52" stop-color="#9563D5"/>
<stop offset="1" stop-color="#369996"/>
</linearGradient>
<linearGradient id="paint2_linear_77_5247" x1="63.2576" y1="141.905" x2="326.795" y2="180.532" gradientUnits="userSpaceOnUse">
<stop stop-color="#E299C7"/>
<stop offset="0.52" stop-color="#9563D5"/>
<stop offset="1" stop-color="#369996"/>
</linearGradient>
<linearGradient id="paint3_linear_77_5247" x1="54.2089" y1="203.635" x2="317.749" y2="242.26" gradientUnits="userSpaceOnUse">
<stop stop-color="#E299C7"/>
<stop offset="0.52" stop-color="#9563D5"/>
<stop offset="1" stop-color="#369996"/>
</linearGradient>
</defs>
</svg>
