<svg width="269" height="42" viewBox="0 0 269 42" fill="none" xmlns="http://www.w3.org/2000/svg">
<path d="M70.3619 8.2044V16.0572L71.3219 16.1264L71.253 20.1902H69.6084L69.4707 17.7791H63.918L63.7813 20.1902H62.1377L62.0689 16.1264L62.8923 16.0572C63.2871 15.3909 63.5868 14.6721 63.7823 13.9219C64.058 12.9572 64.1257 11.9242 64.1257 10.7527V8.2044H70.3619ZM66.1126 11.2352C66.1126 12.3374 65.9749 13.4395 65.7014 14.4043C65.5637 14.955 65.2904 15.5758 65.0848 16.0572H68.2373V9.99553H66.1126V11.234V11.2352ZM81.3983 12.8869C81.3983 16.0562 79.5481 17.9155 76.738 17.9155C73.9266 17.9155 72.282 15.7802 72.282 13.0253C72.282 10.1319 74.1332 7.99679 76.9436 7.99679C79.8216 7.99679 81.3983 10.2011 81.3983 12.8869ZM74.5444 13.0253C74.5444 14.8846 75.4345 16.2628 76.8747 16.2628C78.3137 16.2628 79.1359 14.8846 79.1359 13.0253C79.1359 11.3032 78.3137 9.78791 76.8747 9.78791C75.3666 9.71871 74.5444 11.1648 74.5444 13.0253ZM85.2355 8.2044V11.855H88.8001V8.2044H90.9248V17.7791H88.7991V13.7835H85.2344V17.7791H83.1098V8.20543H85.2344L85.2355 8.2044ZM100.11 17.5023C99.699 17.7089 98.8077 17.9155 97.711 17.9155C94.4216 17.9155 92.7082 15.8496 92.7082 13.0935C92.7082 9.85609 95.0384 7.99679 97.9164 7.99679C99.0133 7.99679 99.9044 8.20338 100.248 8.40997L99.7678 10.1319C99.3566 9.9253 98.7398 9.78791 97.9853 9.78791C96.2718 9.78791 94.9696 10.8209 94.9696 12.9561C94.9696 14.8846 96.1353 16.055 97.9853 16.055C98.671 16.055 99.3566 15.9176 99.7678 15.711L100.11 17.5023ZM103.947 8.2044V12.2H104.153L106.757 8.2044H109.362L106.072 12.4748C107.306 12.7516 107.854 13.6461 108.265 14.7483C108.609 15.7814 108.882 16.8143 109.362 17.7791H107.032C106.69 17.1593 106.552 16.4012 106.278 15.644C105.935 14.5417 105.524 13.7153 104.358 13.7153H103.947V17.7099H101.822V8.2044H103.947ZM119.097 12.8869C119.097 16.0562 117.247 17.9155 114.437 17.9155C111.627 17.9155 109.981 15.7802 109.981 13.0253C109.981 10.1319 111.832 7.99679 114.642 7.99679C117.52 7.99679 119.097 10.2011 119.097 12.8869ZM112.243 13.0253C112.243 14.8846 113.134 16.2628 114.573 16.2628C116.012 16.2628 116.836 14.8846 116.836 13.0253C116.836 11.3032 116.012 9.78791 114.573 9.78791C113.066 9.71871 112.243 11.1648 112.243 13.0253ZM122.798 8.2044V11.0286C122.798 12.544 122.729 14.0593 122.661 15.3682H122.729C123.209 14.2659 123.894 12.9572 124.443 11.9242L126.499 8.1352H128.692V17.7099H126.705V14.8857C126.705 13.4395 126.705 12.1308 126.841 10.8221H126.773C126.362 11.9934 125.745 13.2329 125.128 14.2659L123.209 17.7099H120.742V8.2044H122.798ZM124.1 6C124.1 6.55056 124.306 6.89454 124.717 6.89454C125.128 6.89454 125.333 6.55056 125.333 6H126.773C126.705 7.23957 125.882 7.72199 124.649 7.72199C123.414 7.72199 122.729 7.17035 122.592 6H124.1ZM138.905 8.2044V9.99553H135.272V17.7801H133.147V8.2044H138.905ZM148.57 12.8869C148.57 16.0562 146.719 17.9155 143.908 17.9155C141.098 17.9155 139.454 15.7802 139.454 13.0253C139.454 10.1319 141.304 7.99679 144.114 7.99679C146.993 7.99679 148.57 10.2011 148.57 12.8869ZM141.715 13.0253C141.715 14.8846 142.606 16.2628 144.046 16.2628C145.485 16.2628 146.307 14.8846 146.307 13.0253C146.307 11.3032 145.485 9.78791 144.046 9.78791C142.538 9.71871 141.715 11.1648 141.715 13.0253ZM157.276 17.5023C156.864 17.7089 155.973 17.9155 154.876 17.9155C151.586 17.9155 149.872 15.8496 149.872 13.0935C149.872 9.85609 152.202 7.99679 155.081 7.99679C156.179 7.99679 157.07 8.20338 157.412 8.40997L156.932 10.1319C156.521 9.9253 155.903 9.78791 155.149 9.78791C153.436 9.78791 152.134 10.8209 152.134 12.9561C152.134 14.8846 153.299 16.055 155.149 16.055C155.835 16.055 156.521 15.9176 156.932 15.711L157.276 17.5023ZM160.701 8.2044L162.073 11.6494C162.345 12.3374 162.552 12.889 162.758 13.5087H162.826C162.964 13.0956 163.1 12.4758 163.306 11.6484L164.333 8.2044H166.596L164.814 12.9582C164.265 14.4043 163.648 15.8506 162.964 16.7462C162.345 17.5043 161.524 17.9857 160.427 17.9857C159.947 17.9857 159.673 17.9175 159.398 17.8483L159.536 16.1264C159.741 16.1956 159.947 16.1956 160.221 16.1956C160.906 16.1956 161.318 15.7132 161.524 15.3C161.592 15.1616 161.524 15.0242 161.456 14.8177L158.233 8.13622H160.701V8.2044ZM174.548 8.2044V16.0572L175.507 16.1264L175.437 20.1902H173.793L173.657 17.7791H168.103L167.967 20.1902H166.323L166.253 16.1264L167.076 16.0572C167.47 15.3909 167.771 14.6722 167.967 13.9219C168.241 12.9572 168.309 11.9242 168.309 10.7527V8.2044H174.548ZM170.366 11.2352C170.366 12.3374 170.229 13.4395 169.955 14.4043C169.817 14.955 169.543 15.5758 169.338 16.0572H172.49V9.99553H170.366V11.234V11.2352ZM179.345 15.2988L178.66 17.7801H176.466L179.345 8.2044H182.156L185.103 17.7791H182.772L182.019 15.2988H179.345ZM181.745 13.7153L181.128 11.6494C180.991 11.0978 180.786 10.3395 180.648 9.78894C180.512 10.3395 180.374 11.0978 180.236 11.6484L179.689 13.7143L181.745 13.7153ZM186.678 8.34281C187.365 8.2044 188.256 8.13622 189.557 8.13622C190.86 8.13622 191.821 8.41099 192.436 8.89338C193.053 9.37576 193.465 10.2033 193.465 11.0978C193.465 12.0626 193.191 12.8198 192.574 13.3714C191.821 14.0593 190.724 14.4043 189.489 14.4043C189.215 14.4043 188.942 14.4043 188.736 14.3351V17.7791H186.61V8.34281H186.678ZM188.804 12.6824C189.01 12.7506 189.215 12.7506 189.557 12.7506C190.724 12.7506 191.409 12.2 191.409 11.2352C191.409 10.3407 190.792 9.85814 189.695 9.85814C189.283 9.85814 188.942 9.85814 188.804 9.92632V12.6824ZM202.1 17.5023C201.691 17.7089 200.799 17.9155 199.703 17.9155C196.412 17.9155 194.7 15.8496 194.7 13.0935C194.7 9.85609 197.029 7.99679 199.908 7.99679C201.005 7.99679 201.896 8.20338 202.238 8.40997L201.759 10.1319C201.347 9.9253 200.731 9.78791 199.976 9.78791C198.262 9.78791 196.961 10.8209 196.961 12.9561C196.961 14.8846 198.126 16.055 199.976 16.055C200.662 16.055 201.347 15.9176 201.759 15.711L202.1 17.5023ZM205.94 9.99553H203.335V8.2044H210.669V9.99553H208.064V17.7801H205.94V9.99553ZM212.108 8.34281C212.657 8.27361 213.822 8.13622 214.919 8.13622C216.222 8.13622 217.043 8.27361 217.728 8.68679C218.415 9.03076 218.895 9.71973 218.895 10.5461C218.895 11.3736 218.415 12.2 217.319 12.6132C218.415 12.889 219.237 13.7153 219.237 14.9561C219.237 15.8506 218.825 16.5396 218.278 17.022C217.592 17.5725 216.428 17.9165 214.508 17.9165C213.48 17.9165 212.657 17.8483 212.178 17.7791V8.34281H212.108ZM214.234 11.9934H214.919C216.084 11.9934 216.633 11.511 216.633 10.8221C216.633 10.0649 216.084 9.71973 215.125 9.71973C214.645 9.71973 214.372 9.71973 214.234 9.78894V11.9934ZM214.234 16.2638H215.057C216.016 16.2638 216.907 15.8506 216.907 14.8869C216.907 13.9219 216.016 13.5769 214.987 13.5769H214.234V16.2638ZM226.643 13.7153H223.146V15.988H227.053V17.7791H220.953V8.20543H226.848V9.9945H223.146V11.9934H226.643V13.7153ZM230.959 8.2044V11.855H234.523V8.2044H236.647V17.7791H234.523V13.7835H230.959V17.7791H228.833V8.20543L230.959 8.2044ZM240.968 8.2044V11.855H244.533V8.2044H246.656V17.7791H244.533V13.7835H240.968V17.7791H238.842V8.20543L240.968 8.2044ZM250.976 8.2044V11.511C251.248 11.4418 251.659 11.4418 252.003 11.4418C253.991 11.4418 255.773 12.4066 255.773 14.6111C255.773 15.5056 255.499 16.1946 255.02 16.677C254.127 17.6417 252.483 17.9175 251.112 17.9175C250.085 17.9175 249.26 17.8483 248.782 17.7791V8.20543L250.976 8.2044ZM250.976 16.1946C251.112 16.2638 251.386 16.2638 251.729 16.2638C252.688 16.2638 253.579 15.7132 253.579 14.6791C253.579 13.5769 252.551 13.1637 251.729 13.1637C251.454 13.1637 251.182 13.1637 250.976 13.2329V16.1946ZM258.858 8.2044V17.7791H256.732V8.20543L258.858 8.2044ZM263.104 8.2044V11.0286C263.096 12.476 263.051 13.9231 262.968 15.3682H263.036C263.516 14.2659 264.201 12.9572 264.75 11.9242L266.806 8.1352H269V17.7099H267.012V14.8857C267.012 13.4395 267.012 12.1308 267.15 10.8221H267.08C266.669 11.9934 266.053 13.2329 265.436 14.2659L263.516 17.7099H261.048V8.2044H263.104ZM264.407 6C264.407 6.55056 264.613 6.89454 265.024 6.89454C265.436 6.89454 265.641 6.55056 265.641 6H267.08C267.012 7.23957 266.189 7.72199 264.956 7.72199C263.721 7.72199 263.036 7.17035 262.898 6H264.407ZM64.6047 27.078H62V25.2187H69.334V27.0088H66.7294V34.7934H64.6047V27.078ZM76.4625 30.7978H72.9665V33.0715H76.8735V34.8616H70.7742V25.2187H76.6691V27.0088H72.9677V29.0067H76.4635L76.4625 30.7978ZM83.6597 34.7934L82.7674 33.0715C82.4251 32.3825 82.2197 31.9 81.9452 31.3494C81.7396 31.9 81.534 32.3825 81.1917 33.0715L80.4372 34.7934H77.9015L80.6428 29.9715L78.0382 25.2187H80.506L81.3284 26.9406C81.6029 27.4912 81.8085 27.9736 82.083 28.5241C82.2886 27.9044 82.494 27.4912 82.6996 26.9406L83.522 25.2187H85.9888L83.3164 29.9023L86.1265 34.7934H83.6597ZM89.7603 25.2187V28.8693H93.3239V25.2187H95.4486V34.7924H93.3239V30.7978H89.7603V34.7934H87.6334V25.2187H89.7603ZM99.5632 25.2165V28.0407C99.5554 29.4882 99.5099 30.9352 99.4265 32.3803H99.4954C99.9744 31.2781 100.66 29.9692 101.209 28.9363L103.265 25.1473H105.458V34.7222H103.47V31.8979C103.47 30.4518 103.47 29.1429 103.608 27.8341H103.539C103.128 29.0055 102.511 30.2452 101.895 31.2781L99.9744 34.7222H97.5075V25.2165H99.5632ZM109.569 25.2187V28.0429C109.569 29.1451 110.185 29.6957 111.146 29.6957C111.625 29.6957 112.104 29.5573 112.517 29.3517V25.2187H114.641V34.9308H112.517V30.9352H112.448C111.762 31.2802 111.076 31.4176 110.323 31.4176C108.61 31.4176 107.375 30.523 107.375 28.4561V25.2187H109.569ZM122.523 30.7978H119.027V33.0715H122.934V34.8616H116.834V25.2187H122.729V27.0088H119.027V29.0067H122.523V30.7978ZM131.708 34.5848C131.297 34.7914 130.406 34.9979 129.309 34.9979C126.019 34.9979 124.306 32.9319 124.306 30.176C124.306 26.9386 126.636 25.0791 129.515 25.0791C130.612 25.0791 131.503 25.2859 131.845 25.4925L131.365 27.2144C130.954 27.0078 130.337 26.8704 129.584 26.8704C127.869 26.8704 126.567 27.9033 126.567 30.0386C126.567 31.9671 127.732 33.1374 129.584 33.1374C130.268 33.1374 130.954 33.0001 131.365 32.7935L131.708 34.5848ZM135.548 25.2187V29.2133H135.753L138.358 25.2187H140.962L137.672 29.4891C138.906 29.7649 139.455 30.6604 139.866 31.7626C140.208 32.7957 140.482 33.8286 140.962 34.7934H138.631C138.289 34.1726 138.152 33.4155 137.878 32.6571C137.534 31.555 137.123 30.7296 135.959 30.7296H135.548V34.7242H133.422V25.2187H135.548ZM144.184 25.2165V28.0407C144.176 29.4882 144.13 30.9352 144.046 32.3803H144.115C144.595 31.2781 145.281 29.9692 145.828 28.9363L147.885 25.1473H150.079V34.7222H148.091V31.8979C148.091 30.4518 148.091 29.1429 148.228 27.8341H148.159C147.747 29.0055 147.131 30.2452 146.514 31.2781L144.595 34.7222H142.127V25.2165H144.184ZM154.259 25.2177V28.0418C154.259 29.5573 154.19 31.0726 154.121 32.3813H154.19C154.67 31.2792 155.355 29.9704 155.903 28.9375L157.959 25.1485H160.153V34.7232H158.167V31.8989C158.167 30.4528 158.167 29.1441 158.303 27.8352H158.235C157.823 29.0067 157.206 30.2462 156.589 31.2792L154.67 34.7232H152.202V25.2177H154.259ZM155.561 23.0824C155.561 23.633 155.767 23.977 156.179 23.977C156.589 23.977 156.794 23.633 156.794 23.0824H158.235C158.167 24.322 157.344 24.8045 156.109 24.8045C154.876 24.8045 154.19 24.2527 154.054 23.0824H155.561ZM166.666 25.2187L168.037 28.6627C168.31 29.3517 168.516 29.9023 168.722 30.522H168.79C168.928 30.1088 169.066 29.4891 169.271 28.6627L170.298 25.2187H172.56L170.778 29.9715C170.229 31.4176 169.613 32.8637 168.928 33.7594C168.31 34.5176 167.487 35 166.391 35C165.911 35 165.637 34.9308 165.363 34.8616L165.499 33.1397C165.705 33.2089 165.911 33.2089 166.186 33.2089C166.872 33.2089 167.283 32.7265 167.487 32.3131C167.557 32.1747 167.487 32.0373 167.419 31.8308L164.267 25.2177L166.666 25.2187ZM175.917 25.2187V28.8693H179.483V25.2187H181.607V34.7924H179.483V30.7978H175.917V34.7934H173.793V25.2187H175.917ZM185.719 25.2165V28.0407C185.719 29.5561 185.651 31.0716 185.583 32.3803H185.651C186.131 31.2781 186.816 29.9692 187.365 28.9363L189.421 25.1473H191.615V34.7222H189.627V31.8979C189.627 30.4518 189.627 29.1429 189.763 27.8341H189.695C189.285 29.0055 188.666 30.2452 188.05 31.2781L186.131 34.7222H183.663V25.2165H185.719ZM193.809 25.3551C194.358 25.2859 195.523 25.1473 196.62 25.1473C197.922 25.1473 198.744 25.2859 199.431 25.699C200.116 26.043 200.594 26.732 200.594 27.5583C200.594 28.3847 200.116 29.2121 199.019 29.6242C200.116 29.9012 200.937 30.7276 200.937 31.9671C200.937 32.8617 200.526 33.5517 199.978 34.033C199.293 34.5848 198.128 34.9287 196.208 34.9287C195.429 34.9347 194.65 34.8884 193.877 34.7902V25.3551H193.809ZM195.934 29.0045H196.62C197.784 29.0045 198.334 28.5231 198.334 27.8331C198.334 27.077 197.784 26.732 196.825 26.732C196.346 26.732 196.07 26.732 195.934 26.8012V29.0045ZM195.934 33.2748H196.756C197.716 33.2748 198.607 32.8627 198.607 31.8979C198.607 30.9342 197.716 30.5892 196.688 30.5892H195.934V33.2748ZM208.272 30.7978H204.775V33.0715H208.683V34.8616H202.65V25.2187H208.545V27.0088H204.843V29.0067H208.34V30.7978H208.272ZM210.465 25.3551C211.152 25.2165 212.042 25.1473 213.344 25.1473C214.647 25.1473 215.606 25.4231 216.223 25.9056C216.841 26.388 217.251 27.2144 217.251 28.1099C217.251 29.0737 216.979 29.832 216.359 30.3826C215.606 31.0716 214.509 31.4155 213.276 31.4155C213.003 31.4155 212.727 31.4155 212.521 31.3474V34.7914H210.397V25.3539H210.465V25.3551ZM212.591 29.6934C212.797 29.7626 213.003 29.7626 213.344 29.7626C214.509 29.7626 215.196 29.2121 215.196 28.2473C215.196 27.3528 214.579 26.8694 213.482 26.8694C213.071 26.8694 212.727 26.8694 212.591 26.9386V29.6934ZM225.889 34.5848C225.478 34.7914 224.587 34.9979 223.49 34.9979C220.199 34.9979 218.485 32.9319 218.485 30.176C218.485 26.9386 220.817 25.0791 223.696 25.0791C224.793 25.0791 225.684 25.2859 226.025 25.4925L225.546 27.2144C225.134 27.0078 224.517 26.8704 223.764 26.8704C222.05 26.8704 220.747 27.9033 220.747 30.0386C220.747 31.9671 221.913 33.1374 223.764 33.1374C224.449 33.1374 225.134 33.0001 225.546 32.7935L225.889 34.5848ZM229.588 25.2165V28.0407C229.58 29.4882 229.535 30.9352 229.452 32.3803H229.52C230 31.2781 230.685 29.9692 231.234 28.9363L233.29 25.1473H235.482V34.7222H233.494V31.8979C233.494 30.4518 233.494 29.1429 233.632 27.8341H233.564C233.152 29.0055 232.537 30.2452 231.92 31.2781L230 34.7222H227.532V25.2165H229.588ZM239.458 27.078H236.923V25.2187H244.255V27.0088H241.652V34.7934H239.526V27.078H239.458ZM251.316 30.7978H247.821V33.0715H251.728V34.8616H245.628V25.2187H251.522V27.0088H247.821V29.0067H251.316V30.7978ZM255.36 27.078H252.756V25.2187H260.089V27.0088H257.486V34.7934H255.36V27.078Z" fill="#006AF2"/>
<mask id="mask0_2054_555" style="mask-type:luminance" maskUnits="userSpaceOnUse" x="0" y="0" width="52" height="42">
<path d="M52 0H0V42H52V0Z" fill="white"/>
</mask>
<g mask="url(#mask0_2054_555)">
<path d="M29.1783 6.69106C25.944 6.53058 22.9503 7.52293 20.5666 9.28493L21.0315 4.6998C21.0578 4.43451 21.2853 4.23145 21.5557 4.23145H36.8042C37.0251 4.23145 37.2229 4.0939 37.2987 3.89084L38.479 0.704162C38.6043 0.363552 38.3505 0.0032959 37.9845 0.0032959H17.7313C17.4609 0.0032959 17.2367 0.206352 17.207 0.471629L15.6936 15.3537C15.6705 15.5895 15.809 15.8155 16.0365 15.8974L19.3105 17.0928C19.5808 17.191 19.8809 17.0534 19.9831 16.7849C21.3216 13.1757 24.9153 10.6441 29.0597 10.8898C33.5699 11.1583 37.246 14.7707 37.5592 19.2478C37.9284 24.5108 33.7248 28.9126 28.5025 28.9126C26.5968 28.9126 24.8296 28.3264 23.369 27.3275C23.135 27.167 22.8184 27.2227 22.6502 27.4487L20.7678 29.9934C20.593 30.2292 20.649 30.5633 20.893 30.7337C23.0492 32.2304 25.6703 33.1081 28.5025 33.1081C36.0558 33.1081 42.1388 26.8526 41.7893 19.2708C41.476 12.5207 35.9734 7.03167 29.1783 6.69761V6.69106Z" fill="#006AF2"/>
<path d="M25.39 17.3717L22.4095 16.2844C22.1425 16.1861 21.8457 16.3172 21.7435 16.5791C20.3391 20.0966 16.7684 22.5365 12.6769 22.2615C8.19629 21.9601 4.56302 18.3608 4.24981 13.91C3.87724 8.64682 8.08419 4.24507 13.3066 4.24507C13.389 4.24507 13.4714 4.24507 13.5506 4.24835C13.8242 4.25818 14.0583 4.04858 14.088 3.77345L14.4078 0.639192C14.4375 0.341156 14.21 0.0791455 13.91 0.0627662C13.7089 0.0529357 13.5111 0.0463867 13.3066 0.0463867C5.95435 0.0496684 0 5.96778 0 13.2647C0 20.5616 5.95435 26.4764 13.3 26.4764C13.7715 26.4764 14.2397 26.4502 14.7012 26.4044L10.4943 32.2243C10.2437 32.5681 10.4943 33.0496 10.9196 33.0496H14.9089C15.0771 33.0496 15.232 32.971 15.331 32.8367L24.0745 21.0103H24.068C24.7306 20.1064 25.278 19.1141 25.6933 18.053C25.8021 17.7778 25.6637 17.4699 25.3867 17.3684L25.39 17.3717Z" fill="#006AF2"/>
<path d="M20.0918 36.3176C20.8831 36.6878 21.2491 37.1954 20.949 37.8242L20.8929 37.9454C20.7612 38.227 20.5171 38.4006 20.1445 38.4236L20.0886 38.5447C20.3557 38.8459 20.4315 39.1833 20.2501 39.5698L20.1874 39.7008C19.8907 40.323 19.261 40.4377 18.417 40.0414L16.5278 39.1539L18.2785 35.4661L20.0952 36.3176H20.0918ZM17.7345 38.9082L18.6116 39.3177C18.9643 39.4847 19.2083 39.4421 19.3335 39.1735L19.383 39.0688C19.5083 38.8035 19.3895 38.5872 19.0237 38.417L18.1566 38.0109L17.7313 38.9082H17.7345ZM18.4533 37.3919L19.2775 37.7784C19.5973 37.929 19.8248 37.8733 19.9402 37.631L19.9896 37.5261C20.1018 37.2903 19.9962 37.0873 19.6665 36.9301L18.8523 36.5502L18.4533 37.3919Z" fill="#006AF2"/>
<path d="M24.1404 37.6048L24.4669 41.8788L23.5108 41.6495L23.4383 40.7423L21.793 40.346L21.315 41.119L20.4149 40.9028L22.6634 37.2477L24.1372 37.6015L24.1404 37.6048ZM22.2349 39.6321L23.3789 39.9071L23.2535 38.3417L23.0525 38.2926L22.2349 39.6287V39.6321Z" fill="#006AF2"/>
<path d="M26.2242 37.9225L27.3781 39.5141H27.5661V37.9191H28.5684V39.5109H28.7563L29.9069 37.9159H31.0411L29.7289 39.7368V39.9857L31.1532 41.9901H29.9366L28.7563 40.3198H28.5684V41.9934H27.5661V40.3198H27.3781L26.2044 41.9934H25.0275L26.4088 40.0348V39.7958L25.0473 37.9159H26.2242V37.9225Z" fill="#006AF2"/>
<path d="M34.3414 37.0676L34.536 37.847L32.5083 38.3482L32.7061 39.1342L34.4601 38.7019L34.648 39.4519L32.8941 39.8842L33.1116 40.7455L35.1689 40.2379L35.3634 41.0174L32.3269 41.7674L31.3346 37.811L34.3414 37.0676Z" fill="#006AF2"/>
<path d="M35.657 36.5174L36.3427 37.9584L37.7671 37.2904L37.0812 35.8493L37.9912 35.4202L39.7452 39.1047L38.8352 39.5338L38.1165 38.0207L36.6922 38.6888L37.4109 40.2019L36.501 40.631L34.7469 36.9465L35.657 36.5174Z" fill="#006AF2"/>
<path d="M40.9419 33.1735L42.0596 34.3197L42.1948 34.1888L42.0003 32.155L42.7948 31.3886L43.0157 33.727L43.1608 33.8744L45.7159 34.2543L44.8686 35.0698L42.775 34.7553L42.6267 34.8995L43.7971 36.1014L43.075 36.7991L40.2199 33.8711L40.9419 33.1735Z" fill="#006AF2"/>
<path d="M44.3082 29.1845L48.4493 30.3798L47.8987 31.1888L47.0184 30.9365L46.0688 32.3285L46.6294 33.0458L46.1117 33.8055L43.4576 30.4289L44.3082 29.1811V29.1845ZM45.5511 31.6702L46.2105 30.7008L44.6939 30.2685L44.5786 30.4388L45.5511 31.6702Z" fill="#006AF2"/>
<path d="M45.4259 27.2914L47.3151 26.7215L47.3744 26.5447L45.8544 26.0304L46.1775 25.0872L47.6975 25.6013L47.7568 25.4245L46.6094 23.8263L46.9754 22.7585L48.2843 24.5828L48.5217 24.6647L50.8923 23.9737L50.4999 25.1167L48.5249 25.6866L48.4656 25.8634L50.0614 26.4005L49.7383 27.3437L48.1425 26.8066L48.0832 26.9835L49.2998 28.6309L48.9207 29.7379L47.4997 27.8055L47.2722 27.7302L45.0434 28.4049L45.4225 27.2979L45.4259 27.2914Z" fill="#006AF2"/>
<path d="M47.0215 18.9432L50.3086 19.0841L50.3317 18.5469L52.0032 18.619L51.9604 19.5688L51.1032 19.5327L50.9877 22.1496L51.845 22.1856L51.8022 23.1353L50.1305 23.0633L50.1471 22.6933C49.735 22.4508 49.1183 22.274 47.9051 22.2215L46.8765 22.1758L47.0182 18.9399L47.0215 18.9432ZM47.948 21.3045C49.2073 21.3832 49.7843 21.5272 50.1932 21.7139L50.2657 20.0764L47.7929 19.9683L47.7336 21.2915L47.948 21.3013V21.3045Z" fill="#006AF2"/>
<path d="M45.9698 13.6244L49.9724 12.7172L50.1966 13.6932L46.1941 14.6004L45.9698 13.6244ZM46.8435 17.4236L48.1228 17.1354L47.9184 16.2511C47.681 15.2194 48.0041 14.62 48.8151 14.4366L49.0229 14.3908C49.8537 14.2041 50.4043 14.6102 50.6384 15.6287L51.0669 17.4956L47.0645 18.4028L46.8403 17.4268L46.8435 17.4236ZM50.0515 16.6997L49.8637 15.881C49.7713 15.4715 49.5899 15.2947 49.2141 15.3798L49.0888 15.4094C48.7195 15.4945 48.6339 15.7303 48.7295 16.1397L48.9173 16.9584L50.0515 16.703V16.6997Z" fill="#006AF2"/>
<path d="M43.9619 12.3635C44.1994 12.2357 44.2489 12.0819 44.1433 11.8887L44.1268 11.8558C44.0345 11.6856 43.8697 11.6233 43.6322 11.7511L43.3125 11.1616C43.8631 10.8668 44.2587 11.0731 44.5554 11.6167L44.5851 11.6724C44.8785 12.2129 44.8356 12.6615 44.2884 12.9562L43.9653 12.3635H43.9619ZM45.3006 12.3733L47.6282 11.1255L47.559 10.9978L44.4301 10.7719L43.9126 9.81869L47.5227 7.88318L47.9875 8.7347L45.6599 9.98248L45.7259 10.1036L48.8547 10.3297L49.3756 11.2859L45.7654 13.2216L45.3006 12.3701V12.3733Z" fill="#006AF2"/>
<path d="M42.8147 8.53161L45.2016 7.04145L45.6203 7.57528L43.5795 9.50761L42.8147 8.52834V8.53161ZM46.4677 6.46174L46.4907 6.49122C46.6689 6.7172 46.6523 7.02507 46.4116 7.21174L46.4017 7.21829C46.171 7.39842 45.8578 7.34603 45.6798 7.11677L45.6567 7.08729C45.4786 6.8613 45.5016 6.54035 45.7325 6.36349L45.7423 6.35694C45.983 6.17027 46.2897 6.23577 46.4677 6.46174Z" fill="#006AF2"/>
</g>
</svg>
