<svg width="277" height="49" viewBox="0 0 277 49" fill="none" xmlns="http://www.w3.org/2000/svg">
<path d="M78.1945 10.6568V18.5524L79.1552 18.622L79.0863 22.7079H77.4403L77.3024 20.2837H71.7451L71.6083 22.7079H69.9633L69.8944 18.622L70.7185 18.5524C71.1137 17.8825 71.4136 17.1597 71.6093 16.4055C71.8852 15.4355 71.9529 14.3969 71.9529 13.219V10.6568H78.1945ZM73.9415 13.7042C73.9415 14.8123 73.8037 15.9205 73.53 16.8905C73.3921 17.4442 73.1186 18.0684 72.9129 18.5524H76.068V12.4577H73.9415V13.703V13.7042ZM89.2402 15.3648C89.2402 18.5513 87.3884 20.4208 84.5759 20.4208C81.7622 20.4208 80.1162 18.2739 80.1162 15.504C80.1162 12.5948 81.9689 10.4481 84.7816 10.4481C87.6621 10.4481 89.2402 12.6644 89.2402 15.3648ZM82.3805 15.504C82.3805 17.3734 83.2713 18.7591 84.7127 18.7591C86.1529 18.7591 86.9758 17.3734 86.9758 15.504C86.9758 13.7725 86.1529 12.249 84.7127 12.249C83.2034 12.1794 82.3805 13.6334 82.3805 15.504ZM93.0805 10.6568V14.3273H96.6482V10.6568H98.7747V20.2837H96.6472V16.2663H93.0795V20.2837H90.953V10.6579H93.0795L93.0805 10.6568ZM107.968 20.0053C107.556 20.2131 106.664 20.4208 105.567 20.4208C102.274 20.4208 100.56 18.3436 100.56 15.5726C100.56 12.3175 102.892 10.4481 105.772 10.4481C106.87 10.4481 107.762 10.6558 108.105 10.8635L107.625 12.5948C107.214 12.3871 106.596 12.249 105.841 12.249C104.126 12.249 102.823 13.2875 102.823 15.4344C102.823 17.3734 103.99 18.5501 105.841 18.5501C106.527 18.5501 107.214 18.412 107.625 18.2043L107.968 20.0053ZM111.808 10.6568V14.6742H112.014L114.621 10.6568H117.227L113.934 14.9505C115.17 15.2288 115.718 16.1282 116.13 17.2363C116.473 18.2751 116.747 19.3136 117.227 20.2837H114.895C114.553 19.6605 114.415 18.8982 114.141 18.1369C113.798 17.0286 113.386 16.1978 112.219 16.1978H111.808V20.2141H109.681V10.6568H111.808ZM126.971 15.3648C126.971 18.5513 125.119 20.4208 122.306 20.4208C119.494 20.4208 117.847 18.2739 117.847 15.504C117.847 12.5948 119.7 10.4481 122.512 10.4481C125.393 10.4481 126.971 12.6644 126.971 15.3648ZM120.111 15.504C120.111 17.3734 121.003 18.7591 122.443 18.7591C123.884 18.7591 124.708 17.3734 124.708 15.504C124.708 13.7725 123.884 12.249 122.443 12.249C120.934 12.1794 120.111 13.6334 120.111 15.504ZM130.674 10.6568V13.4965C130.674 15.02 130.605 16.5436 130.538 17.8596H130.605C131.086 16.7513 131.772 15.4355 132.321 14.3969L134.379 10.5873H136.574V20.2141H134.585V17.3745C134.585 15.9205 134.585 14.6046 134.721 13.2887H134.653C134.242 14.4665 133.624 15.7128 133.006 16.7513L131.086 20.2141H128.617V10.6568H130.674ZM131.978 8.44043C131.978 8.99399 132.184 9.33984 132.595 9.33984C133.006 9.33984 133.212 8.99399 133.212 8.44043H134.653C134.585 9.68675 133.762 10.1718 132.527 10.1718C131.292 10.1718 130.605 9.61715 130.468 8.44043H131.978ZM146.795 10.6568V12.4577H143.159V20.2847H141.033V10.6568H146.795ZM156.468 15.3648C156.468 18.5513 154.616 20.4208 151.803 20.4208C148.99 20.4208 147.344 18.2739 147.344 15.504C147.344 12.5948 149.196 10.4481 152.009 10.4481C154.89 10.4481 156.468 12.6644 156.468 15.3648ZM149.607 15.504C149.607 17.3734 150.499 18.7591 151.941 18.7591C153.381 18.7591 154.204 17.3734 154.204 15.504C154.204 13.7725 153.381 12.249 151.941 12.249C150.432 12.1794 149.607 13.6334 149.607 15.504ZM165.181 20.0053C164.77 20.2131 163.878 20.4208 162.78 20.4208C159.487 20.4208 157.772 18.3436 157.772 15.5726C157.772 12.3175 160.104 10.4481 162.985 10.4481C164.084 10.4481 164.975 10.6558 165.318 10.8635L164.838 12.5948C164.426 12.3871 163.808 12.249 163.053 12.249C161.338 12.249 160.035 13.2875 160.035 15.4344C160.035 17.3734 161.202 18.5501 163.053 18.5501C163.74 18.5501 164.426 18.412 164.838 18.2043L165.181 20.0053ZM168.609 10.6568L169.983 14.1206C170.255 14.8123 170.463 15.3669 170.669 15.9901H170.737C170.875 15.5746 171.011 14.9515 171.217 14.1196L172.245 10.6568H174.51L172.726 15.4365C172.177 16.8905 171.559 18.3447 170.875 19.2451C170.255 20.0074 169.433 20.4914 168.335 20.4914C167.855 20.4914 167.581 20.4228 167.306 20.3533L167.443 18.622C167.649 18.6915 167.855 18.6915 168.129 18.6915C168.815 18.6915 169.227 18.2065 169.433 17.7911C169.501 17.6519 169.433 17.5138 169.365 17.3061L166.14 10.5883H168.609V10.6568ZM182.468 10.6568V18.5524L183.428 18.622L183.359 22.7079H181.713L181.577 20.2837H176.018L175.882 22.7079H174.236L174.166 18.622L174.99 18.5524C175.385 17.8825 175.686 17.1599 175.882 16.4055C176.156 15.4355 176.224 14.3969 176.224 13.219V10.6568H182.468ZM178.283 13.7042C178.283 14.8123 178.145 15.9205 177.871 16.8905C177.734 17.4442 177.46 18.0684 177.254 18.5524H180.409V12.4577H178.283V13.703V13.7042ZM187.27 17.7899L186.584 20.2847H184.388L187.27 10.6568H190.083L193.033 20.2837H190.699L189.945 17.7899H187.27ZM189.671 16.1978L189.053 14.1206C188.917 13.566 188.711 12.8036 188.573 12.25C188.437 12.8036 188.299 13.566 188.162 14.1196L187.614 16.1967L189.671 16.1978ZM194.609 10.796C195.296 10.6568 196.188 10.5883 197.49 10.5883C198.794 10.5883 199.756 10.8646 200.372 11.3496C200.989 11.8346 201.401 12.6666 201.401 13.566C201.401 14.5361 201.127 15.2973 200.509 15.8519C199.756 16.5436 198.658 16.8905 197.422 16.8905C197.148 16.8905 196.874 16.8905 196.668 16.8209V20.2837H194.541V10.796H194.609ZM196.736 15.1592C196.942 15.2277 197.148 15.2277 197.49 15.2277C198.658 15.2277 199.344 14.6742 199.344 13.7042C199.344 12.8048 198.726 12.3196 197.628 12.3196C197.216 12.3196 196.874 12.3196 196.736 12.3881V15.1592ZM210.044 20.0053C209.634 20.2131 208.742 20.4208 207.644 20.4208C204.351 20.4208 202.637 18.3436 202.637 15.5726C202.637 12.3175 204.969 10.4481 207.85 10.4481C208.948 10.4481 209.84 10.6558 210.182 10.8635L209.702 12.5948C209.29 12.3871 208.674 12.249 207.918 12.249C206.203 12.249 204.901 13.2875 204.901 15.4344C204.901 17.3734 206.066 18.5501 207.918 18.5501C208.604 18.5501 209.29 18.412 209.702 18.2043L210.044 20.0053ZM213.887 12.4577H211.28V10.6568H218.62V12.4577H216.013V20.2847H213.887V12.4577ZM220.06 10.796C220.61 10.7264 221.776 10.5883 222.874 10.5883C224.177 10.5883 224.999 10.7264 225.685 11.1418C226.373 11.4877 226.853 12.1804 226.853 13.0113C226.853 13.8433 226.373 14.6742 225.275 15.0896C226.373 15.3669 227.195 16.1978 227.195 17.4453C227.195 18.3447 226.783 19.0374 226.235 19.5224C225.549 20.076 224.383 20.4218 222.462 20.4218C221.434 20.4218 220.61 20.3532 220.13 20.2837V10.796H220.06ZM222.188 14.4665H222.874C224.039 14.4665 224.589 13.9815 224.589 13.2887C224.589 12.5275 224.039 12.1804 223.079 12.1804C222.6 12.1804 222.325 12.1804 222.188 12.25V14.4665ZM222.188 18.7601H223.011C223.971 18.7601 224.863 18.3447 224.863 17.3757C224.863 16.4055 223.971 16.0586 222.942 16.0586H222.188V18.7601ZM234.607 16.1978H231.108V18.4828H235.017V20.2837H228.912V10.6579H234.813V12.4567H231.108V14.4665H234.607V16.1978ZM238.927 10.6568V14.3273H242.494V10.6568H244.62V20.2837H242.494V16.2663H238.927V20.2837H236.799V10.6579L238.927 10.6568ZM248.944 10.6568V14.3273H252.512V10.6568H254.638V20.2837H252.512V16.2663H248.944V20.2837H246.817V10.6579L248.944 10.6568ZM258.961 10.6568V13.9815C259.233 13.9119 259.645 13.9119 259.989 13.9119C261.978 13.9119 263.762 14.8819 263.762 17.0984C263.762 17.9978 263.488 18.6905 263.008 19.1755C262.114 20.1455 260.469 20.4228 259.097 20.4228C258.069 20.4228 257.243 20.3532 256.765 20.2837V10.6579L258.961 10.6568ZM258.961 18.6905C259.097 18.7601 259.371 18.7601 259.715 18.7601C260.675 18.7601 261.566 18.2065 261.566 17.1668C261.566 16.0586 260.537 15.6432 259.715 15.6432C259.439 15.6432 259.167 15.6432 258.961 15.7128V18.6905ZM266.849 10.6568V20.2837H264.722V10.6579L266.849 10.6568ZM271.099 10.6568V13.4965C271.091 14.9517 271.046 16.4067 270.963 17.8596H271.031C271.511 16.7513 272.197 15.4355 272.747 14.3969L274.804 10.5873H277V20.2141H275.01V17.3745C275.01 15.9205 275.01 14.6046 275.148 13.2887H275.078C274.667 14.4665 274.05 15.7128 273.433 16.7513L271.511 20.2141H269.042V10.6568H271.099ZM272.403 8.44043C272.403 8.99399 272.609 9.33984 273.021 9.33984C273.433 9.33984 273.639 8.99399 273.639 8.44043H275.078C275.01 9.68675 274.187 10.1718 272.953 10.1718C271.717 10.1718 271.031 9.61715 270.893 8.44043H272.403ZM72.4324 29.6332H69.8255V27.7638H77.1656V29.5636H74.5589V37.3906H72.4324V29.6332ZM84.3002 33.3733H80.8012V35.6593H84.7115V37.4592H78.607V27.7638H84.5069V29.5636H80.8024V31.5724H84.3012L84.3002 33.3733ZM91.5035 37.3906L90.6104 35.6593C90.2678 34.9666 90.0622 34.4814 89.7875 33.9278C89.5817 34.4814 89.376 34.9666 89.0334 35.6593L88.2782 37.3906H85.7404L88.484 32.5424L85.8772 27.7638H88.3471L89.1702 29.4951C89.4449 30.0486 89.6507 30.5336 89.9254 31.0872C90.1311 30.4641 90.3367 30.0486 90.5425 29.4951L91.3656 27.7638H93.8345L91.1598 32.4728L93.9723 37.3906H91.5035ZM97.6091 27.7638V31.4342H101.176V27.7638H103.302V37.3896H101.176V33.3733H97.6091V37.3906H95.4805V27.7638H97.6091ZM107.42 27.7615V30.6012C107.413 32.0565 107.367 33.5114 107.284 34.9644H107.352C107.832 33.8562 108.518 32.5402 109.067 31.5016L111.125 27.692H113.32V37.319H111.331V34.4793C111.331 33.0253 111.331 31.7093 111.469 30.3934H111.4C110.988 31.5712 110.371 32.8176 109.754 33.8562L107.832 37.319H105.363V27.7615H107.42ZM117.434 27.7638V30.6034C117.434 31.7115 118.051 32.2651 119.012 32.2651C119.493 32.2651 119.972 32.1259 120.385 31.9193V27.7638H122.511V37.5287H120.385V33.5114H120.316C119.63 33.8583 118.943 33.9964 118.189 33.9964C116.474 33.9964 115.239 33.097 115.239 31.0188V27.7638H117.434ZM130.4 33.3733H126.901V35.6593H130.811V37.4592H124.705V27.7638H130.605V29.5636H126.901V31.5724H130.4V33.3733ZM139.593 37.1808C139.181 37.3885 138.289 37.5963 137.191 37.5963C133.898 37.5963 132.184 35.5189 132.184 32.7481C132.184 29.493 134.516 27.6234 137.397 27.6234C138.495 27.6234 139.387 27.8313 139.729 28.039L139.249 29.7703C138.837 29.5626 138.22 29.4245 137.466 29.4245C135.75 29.4245 134.447 30.463 134.447 32.6099C134.447 34.5489 135.613 35.7256 137.466 35.7256C138.151 35.7256 138.837 35.5875 139.249 35.3798L139.593 37.1808ZM143.435 27.7638V31.7801H143.641L146.248 27.7638H148.854L145.561 32.0574C146.796 32.3347 147.345 33.2351 147.757 34.3433C148.099 35.382 148.374 36.4206 148.854 37.3906H146.521C146.179 36.7664 146.042 36.0052 145.767 35.2427C145.424 34.1345 145.012 33.3047 143.847 33.3047H143.435V37.321H141.308V27.7638H143.435ZM152.079 27.7615V30.6012C152.07 32.0565 152.024 33.5114 151.941 34.9644H152.01C152.49 33.8562 153.176 32.5402 153.725 31.5016L155.783 27.692H157.978V37.319H155.989V34.4793C155.989 33.0253 155.989 31.7093 156.126 30.3934H156.057C155.645 31.5712 155.028 32.8176 154.411 33.8562L152.49 37.319H150.02V27.7615H152.079ZM162.162 27.7627V30.6022C162.162 32.1259 162.094 33.6495 162.025 34.9654H162.094C162.574 33.8572 163.259 32.5414 163.808 31.5028L165.866 27.6932H168.061V37.32H166.073V34.4804C166.073 33.0264 166.073 31.7105 166.209 30.3945H166.141C165.729 31.5724 165.112 32.8187 164.494 33.8572L162.574 37.32H160.104V27.7627H162.162ZM163.466 25.6159C163.466 26.1694 163.672 26.5153 164.084 26.5153C164.494 26.5153 164.7 26.1694 164.7 25.6159H166.141C166.073 26.8621 165.25 27.3473 164.014 27.3473C162.78 27.3473 162.094 26.7926 161.957 25.6159H163.466ZM174.58 27.7638L175.952 31.2265C176.226 31.9193 176.432 32.4728 176.637 33.096H176.706C176.843 32.6805 176.981 32.0574 177.187 31.2265L178.215 27.7638H180.479L178.695 32.5424C178.145 33.9964 177.529 35.4504 176.843 36.351C176.226 37.1133 175.402 37.5983 174.304 37.5983C173.824 37.5983 173.55 37.5287 173.276 37.4592L173.412 35.7279C173.618 35.7974 173.824 35.7974 174.1 35.7974C174.786 35.7974 175.198 35.3124 175.402 34.8968C175.472 34.7577 175.402 34.6195 175.334 34.4118L172.178 27.7627L174.58 27.7638ZM183.839 27.7638V31.4342H187.408V27.7638H189.533V37.3896H187.408V33.3733H183.839V37.3906H181.713V27.7638H183.839ZM193.649 27.7615V30.6012C193.649 32.1247 193.581 33.6485 193.513 34.9644H193.581C194.061 33.8562 194.747 32.5402 195.296 31.5016L197.354 27.692H199.55V37.319H197.56V34.4793C197.56 33.0253 197.56 31.7093 197.696 30.3934H197.628C197.218 31.5712 196.598 32.8176 195.982 33.8562L194.061 37.319H191.591V27.7615H193.649ZM201.745 27.9009C202.295 27.8313 203.461 27.692 204.559 27.692C205.862 27.692 206.684 27.8313 207.372 28.2467C208.058 28.5926 208.536 29.2853 208.536 30.1162C208.536 30.947 208.058 31.7789 206.96 32.1933C208.058 32.4718 208.88 33.3026 208.88 34.5489C208.88 35.4483 208.468 36.1421 207.92 36.6261C207.234 37.1808 206.068 37.5267 204.147 37.5267C203.367 37.5327 202.588 37.4861 201.813 37.3873V27.9009H201.745ZM203.873 31.5701H204.559C205.724 31.5701 206.274 31.0862 206.274 30.3924C206.274 29.6322 205.724 29.2853 204.764 29.2853C204.284 29.2853 204.009 29.2853 203.873 29.3549V31.5701ZM203.873 35.8638H204.695C205.656 35.8638 206.548 35.4494 206.548 34.4793C206.548 33.5104 205.656 33.1635 204.627 33.1635H203.873V35.8638ZM216.22 33.3733H212.721V35.6593H216.632V37.4592H210.594V27.7638H216.495V29.5636H212.789V31.5724H216.289V33.3733H216.22ZM218.416 27.9009C219.104 27.7615 219.994 27.692 221.298 27.692C222.601 27.692 223.561 27.9693 224.179 28.4544C224.797 28.9394 225.207 29.7703 225.207 30.6707C225.207 31.6397 224.935 32.4022 224.315 32.9558C223.561 33.6485 222.463 33.9943 221.229 33.9943C220.955 33.9943 220.68 33.9943 220.474 33.9258V37.3885H218.348V27.8997H218.416V27.9009ZM220.544 32.2629C220.749 32.3325 220.955 32.3325 221.298 32.3325C222.463 32.3325 223.151 31.7789 223.151 30.8089C223.151 29.9095 222.533 29.4234 221.435 29.4234C221.023 29.4234 220.68 29.4234 220.544 29.493V32.2629ZM233.853 37.1808C233.441 37.3885 232.549 37.5963 231.452 37.5963C228.158 37.5963 226.443 35.5189 226.443 32.7481C226.443 29.493 228.776 27.6234 231.657 27.6234C232.755 27.6234 233.647 27.8313 233.989 28.039L233.509 29.7703C233.097 29.5626 232.48 29.4245 231.726 29.4245C230.01 29.4245 228.706 30.463 228.706 32.6099C228.706 34.5489 229.874 35.7256 231.726 35.7256C232.411 35.7256 233.097 35.5875 233.509 35.3798L233.853 37.1808ZM237.555 27.7615V30.6012C237.546 32.0565 237.502 33.5114 237.419 34.9644H237.487C237.967 33.8562 238.653 32.5402 239.202 31.5016L241.26 27.692H243.454V37.319H241.464V34.4793C241.464 33.0253 241.464 31.7093 241.602 30.3934H241.534C241.122 31.5712 240.506 32.8176 239.888 33.8562L237.967 37.319H235.497V27.7615H237.555ZM247.433 29.6332H244.895V27.7638H252.234V29.5636H249.629V37.3906H247.501V29.6332H247.433ZM259.301 33.3733H255.803V35.6593H259.713V37.4592H253.608V27.7638H259.507V29.5636H255.803V31.5724H259.301V33.3733ZM263.348 29.6332H260.743V27.7638H268.082V29.5636H265.476V37.3906H263.348V29.6332Z" fill="white"/>
<mask id="mask0_2054_710" style="mask-type:luminance" maskUnits="userSpaceOnUse" x="0" y="0" width="61" height="49">
<path d="M60.391 0H0V48.7428H60.391V0Z" fill="white"/>
</mask>
<g mask="url(#mask0_2054_710)">
<path d="M33.8866 7.76535C30.1304 7.5791 26.6537 8.73077 23.8853 10.7757L24.4252 5.45441C24.4558 5.14652 24.72 4.91087 25.034 4.91087H42.7431C42.9996 4.91087 43.2294 4.75123 43.3174 4.51558L44.6882 0.817293C44.8337 0.421999 44.5389 0.00390625 44.1138 0.00390625H20.5924C20.2784 0.00390625 20.0181 0.239562 19.9836 0.547427L18.226 17.8187C18.1992 18.0924 18.36 18.3546 18.6242 18.4497L22.4265 19.8371C22.7404 19.951 23.0889 19.7913 23.2076 19.4797C24.7622 15.2911 28.9358 12.353 33.7489 12.6382C38.9869 12.9498 43.2562 17.1422 43.6199 22.338C44.0487 28.446 39.1668 33.5544 33.1018 33.5544C30.8885 33.5544 28.8362 32.8741 27.14 31.7149C26.8681 31.5286 26.5005 31.5932 26.3051 31.8555L24.119 34.8087C23.9159 35.0824 23.9811 35.4701 24.2643 35.6678C26.7685 37.4048 29.8126 38.4234 33.1018 38.4234C41.8739 38.4234 48.9385 31.1637 48.5326 22.3647C48.1688 14.5309 41.7782 8.16064 33.8866 7.77295V7.76535Z" fill="white"/>
<path d="M29.487 20.1605L26.0256 18.8986C25.7155 18.7845 25.3709 18.9367 25.2522 19.2407C23.6211 23.3228 19.4742 26.1544 14.7225 25.8353C9.51888 25.4856 5.29933 21.3084 4.93558 16.143C4.5029 10.0349 9.38869 4.92647 15.4538 4.92647C15.5495 4.92647 15.6452 4.92647 15.7372 4.93027C16.055 4.94168 16.3269 4.69843 16.3614 4.37913L16.7327 0.741687C16.7672 0.395803 16.503 0.0917289 16.1546 0.07272C15.921 0.0613113 15.6913 0.0537109 15.4538 0.0537109C6.91517 0.0575195 0 6.92575 0 15.3942C0 23.8625 6.91517 30.727 15.4461 30.727C15.9938 30.727 16.5375 30.6965 17.0734 30.6433L12.1877 37.3976C11.8967 37.7966 12.1877 38.3553 12.6816 38.3553H17.3147C17.5101 38.3553 17.6899 38.2642 17.8049 38.1083L27.9593 24.3833H27.9517C28.7212 23.3342 29.357 22.1826 29.8393 20.9511C29.9656 20.6318 29.805 20.2744 29.4833 20.1566L29.487 20.1605Z" fill="white"/>
<path d="M23.334 42.1483C24.253 42.578 24.678 43.1671 24.3295 43.8969L24.2643 44.0375C24.1113 44.3643 23.8279 44.5658 23.3952 44.5925L23.3302 44.7331C23.6404 45.0827 23.7284 45.4742 23.5178 45.9228L23.445 46.0748C23.1004 46.7969 22.3691 46.93 21.3889 46.4701L19.1949 45.44L21.228 41.1602L23.3379 42.1483H23.334ZM20.5962 45.1549L21.6148 45.6301C22.0244 45.824 22.3079 45.7745 22.4532 45.4628L22.5107 45.3413C22.6562 45.0333 22.5184 44.7824 22.0935 44.5848L21.0864 44.1135L20.5925 45.1549H20.5962ZM21.431 43.3951L22.3883 43.8437C22.7596 44.0185 23.0238 43.9539 23.1578 43.6726L23.2153 43.5509C23.3455 43.2773 23.2229 43.0417 22.84 42.8592L21.8944 42.4183L21.431 43.3951Z" fill="white"/>
<path d="M28.0358 43.6419L28.415 48.6021L27.3046 48.336L27.2204 47.2832L25.3097 46.8232L24.7545 47.7203L23.7092 47.4693L26.3205 43.2275L28.0321 43.6381L28.0358 43.6419ZM25.8228 45.9947L27.1514 46.3138L27.0058 44.4971L26.7724 44.4402L25.8228 45.9908V45.9947Z" fill="white"/>
<path d="M30.4558 44.0106L31.796 45.8577H32.0143V44.0067H33.1783V45.854H33.3966L34.7328 44.0029H36.05L34.5261 46.1162V46.4051L36.1803 48.7312H34.7673L33.3966 46.7927H33.1783V48.7351H32.0143V46.7927H31.796L30.4329 48.7351H29.066L30.6702 46.462V46.1847L29.089 44.0029H30.4558V44.0106Z" fill="white"/>
<path d="M39.8829 43.0186L40.1089 43.9231L37.754 44.5048L37.9837 45.4169L40.0208 44.9152L40.2389 45.7856L38.202 46.2873L38.4547 47.2869L40.8439 46.6977L41.0698 47.6024L37.5433 48.4728L36.3909 43.8813L39.8829 43.0186Z" fill="white"/>
<path d="M41.4108 42.3803L42.2072 44.0526L43.8613 43.2773L43.0648 41.6049L44.1217 41.1069L46.1587 45.3829L45.1019 45.8809L44.2672 44.1249L42.613 44.9002L43.4477 46.6562L42.391 47.1542L40.3539 42.8783L41.4108 42.3803Z" fill="white"/>
<path d="M47.5485 38.4992L48.8465 39.8294L49.0036 39.6774L48.7776 37.3171L49.7004 36.4277L49.9569 39.1415L50.1254 39.3126L53.0929 39.7534L52.1088 40.7L49.6774 40.3349L49.5052 40.5022L50.8644 41.8971L50.0258 42.7068L46.71 39.3088L47.5485 38.4992Z" fill="white"/>
<path d="M51.4579 33.8701L56.2673 35.2574L55.6278 36.1962L54.6055 35.9035L53.5027 37.5189L54.1537 38.3513L53.5525 39.2331L50.4701 35.3143L51.4579 33.8662V33.8701ZM52.9015 36.755L53.6673 35.6299L51.906 35.1281L51.772 35.3259L52.9015 36.755Z" fill="white"/>
<path d="M52.7561 31.6732L54.9501 31.0118L55.0189 30.8066L53.2537 30.2098L53.629 29.1152L55.3942 29.7118L55.4631 29.5066L54.1306 27.6517L54.5556 26.4126L56.0757 28.5298L56.3514 28.6248L59.1045 27.8228L58.6488 29.1493L56.3552 29.8107L56.2863 30.016L58.1396 30.6393L57.7644 31.7339L55.9111 31.1106L55.8422 31.3158L57.2551 33.2277L56.8148 34.5125L55.1645 32.2698L54.9003 32.1824L52.3118 32.9654L52.7522 31.6807L52.7561 31.6732Z" fill="white"/>
<path d="M54.6092 21.9843L58.4266 22.1479L58.4535 21.5244L60.3946 21.6081L60.345 22.7103L59.3495 22.6685L59.2153 25.7055L60.211 25.7473L60.1612 26.8495L58.2198 26.766L58.2391 26.3365C57.7604 26.0551 57.0443 25.8499 55.6353 25.789L54.4407 25.736L54.6053 21.9806L54.6092 21.9843ZM55.6851 24.7248C57.1477 24.8161 57.8177 24.9833 58.2926 25.1999L58.3768 23.2995L55.505 23.174L55.4362 24.7097L55.6851 24.7211V24.7248Z" fill="white"/>
<path d="M53.3877 15.8116L58.0362 14.7588L58.2965 15.8915L53.6482 16.9443L53.3877 15.8116ZM54.4024 20.2207L55.8881 19.8863L55.6508 18.86C55.375 17.6627 55.7502 16.9671 56.6922 16.7542L56.9334 16.701C57.8983 16.4844 58.5378 16.9557 58.8097 18.1377L59.3073 20.3044L54.659 21.3572L54.3987 20.2244L54.4024 20.2207ZM58.128 19.3806L57.9099 18.4305C57.8026 17.9553 57.592 17.7501 57.1555 17.8488L57.01 17.8832C56.5812 17.982 56.4817 18.2555 56.5927 18.7308L56.8109 19.6809L58.128 19.3845V19.3806Z" fill="white"/>
<path d="M51.0558 14.3485C51.3316 14.2003 51.3891 14.0217 51.2665 13.7975L51.2473 13.7594C51.1401 13.5618 50.9487 13.4895 50.6729 13.6378L50.3016 12.9536C50.941 12.6115 51.4005 12.8509 51.7451 13.4819L51.7796 13.5465C52.1203 14.1737 52.0705 14.6944 51.435 15.0364L51.0597 14.3485H51.0558ZM52.6105 14.3599L55.3138 12.9118L55.2333 12.7635L51.5996 12.5014L50.9985 11.3952L55.1912 9.14893L55.731 10.1371L53.0278 11.5853L53.1045 11.7259L56.7381 11.9882L57.343 13.098L53.1504 15.3444L52.6105 14.3562V14.3599Z" fill="white"/>
<path d="M49.7235 9.90157L52.4956 8.17217L52.9819 8.79171L50.6117 11.0343L49.7235 9.89778V9.90157ZM53.966 7.49939L53.9927 7.5336C54.1996 7.79587 54.1804 8.15316 53.9008 8.36981L53.8893 8.37741C53.6213 8.58645 53.2576 8.52565 53.0509 8.25958L53.024 8.22537C52.8173 7.96311 52.844 7.59063 53.1121 7.38537L53.1235 7.37777C53.403 7.16113 53.7592 7.23715 53.966 7.49939Z" fill="white"/>
</g>
</svg>
